<?xml version="1.0" encoding="utf-8"?>
<!-- Generator: Adobe Illustrator 21.0.0, SVG Export Plug-In . SVG Version: 6.00 Build 0)  -->
<svg version="1.1" id="Layer_1" xmlns="http://www.w3.org/2000/svg" xmlns:xlink="http://www.w3.org/1999/xlink" x="0px" y="0px"
	 viewBox="0 0 344.1 148.7" style="enable-background:new 0 0 344.1 148.7;" xml:space="preserve">
<style type="text/css">
	.st0{clip-path:url(#SVGID_2_);fill:#6CC04A;}
	.st1{clip-path:url(#SVGID_2_);fill:#0093C9;}
	.st2{clip-path:url(#SVGID_2_);}
	.st3{clip-path:url(#SVGID_4_);fill:#0093C9;}
	.st4{clip-path:url(#SVGID_4_);fill:#FFFFFF;}
	.st5{clip-path:url(#SVGID_4_);fill:#FF6C36;}
	.st6{opacity:0.1;clip-path:url(#SVGID_4_);}
	.st7{clip-path:url(#SVGID_6_);fill:#0093C9;}
	.st8{clip-path:url(#SVGID_8_);fill:#0093C9;}
	.st9{clip-path:url(#SVGID_10_);fill:#6CC04A;}
	.st10{clip-path:url(#SVGID_12_);fill:#6CC04A;}
	.st11{clip-path:url(#SVGID_14_);fill:#6CC04A;}
</style>
<g>
	<defs>
		<rect id="SVGID_1_" width="344.1" height="148.7"/>
	</defs>
	<clipPath id="SVGID_2_">
		<use xlink:href="#SVGID_1_"  style="overflow:visible;"/>
	</clipPath>
	<rect y="0" class="st0" width="137.8" height="79.6"/>
	<rect x="28.8" y="50.4" class="st1" width="80" height="98.1"/>
	<g class="st2">
		<defs>
			<rect id="SVGID_3_" width="344.1" height="148.7"/>
		</defs>
		<clipPath id="SVGID_4_">
			<use xlink:href="#SVGID_3_"  style="overflow:visible;"/>
		</clipPath>
		<path class="st3" d="M16.4,79.6c4.2,0.7,12.2,1.4,12.2,1.4l23.6,0.3l-23.5,9.7c-14.5,0.8-19.7-3.7-19.7-3.7l2.3-5.4L16.4,79.6z"/>
		<path class="st4" d="M109,148.7c0,0-8.5-7.9-15.7-12.3c-7.2-4.4-22.2-11.5-29.1-11.8c0,0,0.5,10.6,0.5,11.5
			c-4.5-3.3-17-14.3-24.1-24.4c1.3-1.3,10.2-8.3,38-8.4l-8.2,7.2c0,0,17,3.9,38.9,23.9L109,148.7z"/>
		<path class="st5" d="M145.5,10c0-1.3,0.6-2,2-2h5.1c1.3,0,2,0.6,2,2v59.2c0,1.3-0.6,2-2,2h-5.1c-1.3,0-2-0.6-2-2V10z"/>
		<path class="st5" d="M169.5,8.1c1.8,0,3,0.9,3.5,2.5l10.2,35.2c0.2,0.6,0.3,0.9,0.5,0.9c0.2,0.1,0.3,0,0.4-0.2
			c0.1-0.2,0.2-0.6,0.2-0.9l-0.2-35.8c0-1.3,0.6-2,2-2h5.1c1.3,0,2,0.6,2,2v59.2c0,1.3-0.6,2-2,2h-5.4c-1.8,0-3-0.9-3.5-2.5
			c0-0.1-0.6-2.4-1.9-7.2L176,46l-3.9-13.9c-0.2-0.9-0.5-1.1-0.7-0.7c-0.2,0.2-0.2,0.7-0.2,1.4v36.5c0,1.3-0.6,2-2,2H164
			c-1.3,0-2-0.6-2-2V10c0-1.3,0.6-2,2-2H169.5z"/>
		<path class="st5" d="M203.3,71.2c-1,0-1.7-0.2-2.1-0.6c-0.4-0.4-0.6-1.1-0.6-2.1V10.8c0-1,0.2-1.7,0.6-2.1
			c0.4-0.4,1.1-0.6,2.1-0.6h15.4c6.9,0,10.3,3.4,10.3,10.3V61c0,6.9-3.4,10.3-10.3,10.3H203.3z M211.9,17c-1,0-1.7,0.2-2,0.5
			c-0.3,0.3-0.5,0.9-0.5,2v40.3c0,1,0.2,1.7,0.5,2c0.3,0.3,0.9,0.5,2,0.5h2.1c2.1,0,3.6-0.3,4.5-0.9c0.9-0.6,1.3-2.1,1.3-4.4V22.5
			c0-2.3-0.4-3.8-1.3-4.4c-0.9-0.6-2.4-0.9-4.5-0.9L211.9,17z"/>
		<path class="st5" d="M235.6,10c0-1.3,0.6-2,2-2h5.1c1.3,0,2,0.6,2,2v59.2c0,1.3-0.6,2-2,2h-5.1c-1.3,0-2-0.6-2-2V10z"/>
		<path class="st5" d="M276.8,33.7c1,0,1.7,0.2,2.1,0.6c0.4,0.4,0.6,1.1,0.6,2.1v24.4c0,6.9-3.4,10.3-10.3,10.3h-7.9
			c-6.9,0-10.3-3.4-10.3-10.3V18.2c0-6.9,3.4-10.3,10.3-10.3h7.9c6.9,0,10.3,3.4,10.3,10.3v6c0,1.3-0.6,2-2,2h-5.1c-1.3,0-2-0.6-2-2
			v-1.8c0-2.3-0.3-3.8-0.9-4.4c-0.6-0.6-2-0.9-4.3-0.9c-2,0-3.3,0.3-4,0.9c-0.7,0.6-1.1,2.1-1.1,4.5v34.3c0,2.4,0.4,3.9,1.1,4.5
			c0.7,0.6,2.1,0.9,4,0.9c1,0,1.7,0,2.2-0.1c0.5-0.1,0.9-0.2,1.5-0.6c0.6-0.3,0.9-0.9,1.2-1.7c0.2-0.8,0.3-1.8,0.3-3.2V45.2
			c0-0.9-0.2-1.5-0.5-1.8c-0.3-0.3-0.9-0.5-1.8-0.5h-1.9c-1.3,0-2-0.6-2-2v-5.1c0-1.3,0.6-2,2-2L276.8,33.7z"/>
		<path class="st5" d="M314.1,18.3V61c0,6.9-3.4,10.3-10.3,10.3h-8c-6.9,0-10.3-3.4-10.3-10.3V18.3c0-6.9,3.4-10.3,10.3-10.3h8
			C310.7,8.1,314.1,11.4,314.1,18.3 M299.4,16.8c-1.8,0-3.1,0.4-3.8,1.3s-1.1,2.5-1.1,5v32.7c0,2.4,0.4,4.1,1.1,5
			c0.7,0.9,2,1.3,3.8,1.3h0.8h-0.3c1.9,0,3.2-0.4,3.9-1.2c0.7-0.8,1.1-2.4,1.1-4.9V23.2c0-2.4-0.3-4.1-1-4.9c-0.7-0.8-2-1.2-3.9-1.2
			L299.4,16.8z"/>
		<path class="st3" d="M127.7,90.5c0.9,0,1.3,0.4,1.3,1.3v3.4c0,0.9-0.4,1.3-1.3,1.3h-3.3c-0.9,0.1-1.3,0.6-1.3,1.6v33.2
			c0,0.9-0.4,1.3-1.3,1.3h-3.4c-0.9,0-1.3-0.4-1.3-1.3V98.2c0-0.6-0.1-1-0.3-1.2c-0.2-0.2-0.6-0.3-1.2-0.3h-3.1
			c-0.9,0-1.3-0.4-1.3-1.3v-3.4c0-0.9,0.4-1.3,1.3-1.3L127.7,90.5z"/>
		<path class="st3" d="M132.1,92.5c0-0.7,0.2-1.2,0.4-1.4c0.3-0.3,0.7-0.4,1.4-0.4h9.8c4.6,0,6.9,2.3,6.9,6.9v8c0,2.2-0.6,3.7-2,4.7
			c-0.3,0.2-0.4,0.3-0.5,0.5c-0.1,0.2-0.1,0.4,0,0.8l1.1,6.9l1.4,9c0.4,2.6,0.6,4,0.7,4.1c0.2,0.9-0.3,1.3-1.3,1.3h-3.7
			c-0.8,0-1.3-0.4-1.4-1.3l-2.6-16.6c-0.1-0.7-0.5-1.1-1.2-1.1h-1.3c-0.6,0-1,0.1-1.2,0.3c-0.2,0.2-0.3,0.6-0.3,1.2v16
			c0,0.9-0.4,1.3-1.3,1.3h-3.4c-0.9,0-1.3-0.4-1.3-1.3L132.1,92.5z M139.7,96.7c-0.6,0-1,0.1-1.2,0.3c-0.2,0.2-0.3,0.6-0.3,1.2v8
			c0,0.6,0.1,1,0.3,1.3c0.2,0.3,0.6,0.4,1.2,0.4h0.9c1.4,0,2.4-0.2,3-0.6c0.6-0.4,0.9-1.4,0.9-3v-4c0-1.5-0.3-2.5-0.8-3
			c-0.6-0.4-1.6-0.6-3-0.6H139.7z"/>
		<path class="st3" d="M175.5,131.5c0.1,0.4,0,0.7-0.2,0.9c-0.2,0.3-0.5,0.4-0.9,0.4h-3.8c-0.8,0-1.3-0.4-1.4-1.3
			c-0.1-0.1-0.1-0.3-0.2-0.6l-0.2-1.1c-0.1-0.4-0.2-0.9-0.3-1.5c-0.2-0.9-0.7-1.3-1.6-1.3h-4.2c-0.9,0-1.4,0.4-1.6,1.3
			c-0.1,0.6-0.2,1.1-0.3,1.5l-0.2,1.1c-0.1,0.3-0.1,0.5-0.2,0.6c-0.2,0.9-0.6,1.3-1.4,1.3h-3.8c-0.4,0-0.7-0.1-0.9-0.4
			c-0.2-0.3-0.3-0.6-0.2-0.9l6.3-39.6c0.2-0.9,0.6-1.3,1.5-1.3h5.9c0.8,0,1.3,0.4,1.5,1.3L175.5,131.5z M166.2,120.8
			c0.5,0,0.9-0.1,1.1-0.3c0.2-0.2,0.3-0.6,0.2-1.1c-0.8-6.6-1.6-12.4-2.4-17.4c0-0.2-0.1-0.3-0.2-0.4c-0.2-0.1-0.3-0.1-0.4-0.1
			c-0.1,0.1-0.2,0.2-0.2,0.5c-0.8,5-1.6,10.8-2.4,17.4c-0.1,0.5,0,0.8,0.2,1c0.2,0.2,0.6,0.3,1.1,0.3L166.2,120.8z"/>
		<path class="st3" d="M184.3,90.6c1.2,0,2,0.6,2.3,1.7l6.8,23.5c0.1,0.4,0.2,0.6,0.3,0.6c0.1,0.1,0.2,0,0.3-0.2
			c0.1-0.2,0.1-0.4,0.1-0.6L194,91.8c0-0.9,0.4-1.3,1.3-1.3h3.4c0.9,0,1.3,0.4,1.3,1.3v39.6c0,0.9-0.4,1.3-1.3,1.3h-3.6
			c-1.2,0-2-0.6-2.3-1.7c0-0.1-0.4-1.6-1.3-4.8l-2.8-10.3l-2.6-9.3c-0.2-0.6-0.3-0.7-0.5-0.5c-0.1,0.2-0.2,0.5-0.2,1v24.4
			c0,0.9-0.4,1.3-1.3,1.3h-3.4c-0.9,0-1.3-0.4-1.3-1.3V91.9c0-0.9,0.4-1.3,1.3-1.3H184.3z"/>
		<path class="st3" d="M217.3,117.6c0-1.6-0.2-2.6-0.7-3c-0.5-0.4-1.3-0.6-2.6-0.6h-2.8c-2.2,0-3.9-0.6-5.1-1.7
			c-1.2-1.2-1.8-2.9-1.8-5.2v-9.6c0-4.6,2.3-6.9,6.9-6.9h5.3c4.6,0,6.9,2.3,6.9,6.9v4c0,0.9-0.4,1.3-1.3,1.3h-3.4
			c-0.9,0-1.3-0.4-1.3-1.3v-1.2c0-1.4-0.3-2.4-0.8-2.8c-0.5-0.5-1.4-0.7-2.6-0.7c-1.2,0-2.1,0.3-2.6,0.7c-0.5,0.5-0.8,1.4-0.8,2.8v4
			c0,1.5,0.3,2.5,0.9,2.9c0.6,0.4,1.6,0.6,3,0.6h2.3c4.6,0,6.9,2.3,6.9,6.9v11.3c0,4.6-2.3,6.9-6.9,6.9h-5.3c-4.6,0-6.9-2.3-6.9-6.9
			v-4c0-0.9,0.4-1.3,1.3-1.3h3.4c0.9,0,1.3,0.4,1.3,1.3v1.2c0,1.4,0.3,2.4,0.8,2.8c0.5,0.5,1.4,0.7,2.6,0.7c1.2,0,2.1-0.3,2.6-0.7
			c0.5-0.5,0.8-1.4,0.8-2.8v-5.6L217.3,117.6z"/>
		<path class="st3" d="M227.6,91.9c0-0.9,0.4-1.3,1.3-1.3h3.4c0.9,0,1.3,0.4,1.3,1.3v33.2c0,0.6,0.1,1,0.3,1.2
			c0.2,0.2,0.6,0.3,1.2,0.3h5.9c0.9,0,1.3,0.4,1.3,1.3v3.4c0,0.9-0.4,1.3-1.3,1.3h-11.7c-0.7,0-1.2-0.2-1.4-0.4
			c-0.3-0.3-0.4-0.7-0.4-1.4V91.9z"/>
		<path class="st3" d="M265.9,131.5c0.1,0.4,0,0.7-0.2,0.9c-0.2,0.3-0.5,0.4-0.9,0.4H261c-0.8,0-1.3-0.4-1.4-1.3
			c-0.1-0.1-0.1-0.3-0.2-0.6l-0.2-1.1c-0.1-0.4-0.2-0.9-0.3-1.5c-0.2-0.9-0.7-1.3-1.6-1.3h-4.2c-0.9,0-1.4,0.4-1.6,1.3
			c-0.1,0.6-0.2,1.1-0.3,1.5l-0.2,1.1c-0.1,0.3-0.1,0.5-0.2,0.6c-0.2,0.9-0.6,1.3-1.4,1.3h-3.8c-0.4,0-0.7-0.1-0.9-0.4
			c-0.2-0.3-0.3-0.6-0.2-0.9l6.3-39.6c0.2-0.9,0.6-1.3,1.5-1.3h5.9c0.8,0,1.3,0.4,1.5,1.3L265.9,131.5z M256.7,120.8
			c0.5,0,0.9-0.1,1.1-0.3c0.2-0.2,0.3-0.6,0.2-1.1c-0.8-6.6-1.6-12.4-2.4-17.4c0-0.2-0.1-0.3-0.2-0.4c-0.2-0.1-0.3-0.1-0.4-0.1
			c-0.1,0.1-0.2,0.2-0.2,0.5c-0.8,5-1.6,10.8-2.4,17.4c-0.1,0.5,0,0.8,0.2,1c0.2,0.2,0.6,0.3,1.1,0.3L256.7,120.8z"/>
		<path class="st3" d="M284.3,90.5c0.9,0,1.3,0.4,1.3,1.3v3.4c0,0.9-0.4,1.3-1.3,1.3H281c-0.9,0.1-1.3,0.6-1.3,1.6v33.2
			c0,0.9-0.4,1.3-1.3,1.3h-3.4c-0.9,0-1.3-0.4-1.3-1.3V98.2c0-0.6-0.1-1-0.3-1.2c-0.2-0.2-0.6-0.3-1.2-0.3H269
			c-0.9,0-1.3-0.4-1.3-1.3v-3.4c0-0.9,0.4-1.3,1.3-1.3L284.3,90.5z"/>
		<path class="st3" d="M288.8,91.9c0-0.9,0.4-1.3,1.3-1.3h3.4c0.9,0,1.3,0.4,1.3,1.3v39.6c0,0.9-0.4,1.3-1.3,1.3h-3.4
			c-0.9,0-1.3-0.4-1.3-1.3V91.9z"/>
		<path class="st3" d="M318.7,97.4v28.5c0,4.6-2.3,6.9-6.9,6.9h-5.3c-4.6,0-6.9-2.3-6.9-6.9V97.4c0-4.6,2.3-6.9,6.9-6.9h5.3
			C316.4,90.6,318.7,92.8,318.7,97.4 M308.9,96.4c-1.2,0-2.1,0.3-2.5,0.8c-0.5,0.6-0.7,1.7-0.7,3.3v21.8c0,1.6,0.3,2.7,0.7,3.3
			c0.5,0.6,1.3,0.8,2.5,0.8h0.5h-0.2c1.3,0,2.2-0.3,2.6-0.8c0.5-0.5,0.7-1.6,0.7-3.3v-21.8c0-1.6-0.2-2.7-0.7-3.3
			c-0.5-0.5-1.3-0.8-2.6-0.8L308.9,96.4z"/>
		<path class="st3" d="M328.4,90.6c1.2,0,2,0.6,2.3,1.7l6.8,23.5c0.1,0.4,0.2,0.6,0.3,0.6c0.1,0.1,0.2,0,0.3-0.2
			c0.1-0.2,0.1-0.4,0.1-0.6l-0.2-23.9c0-0.9,0.4-1.3,1.3-1.3h3.4c0.9,0,1.3,0.4,1.3,1.3v39.6c0,0.9-0.4,1.3-1.3,1.3h-3.6
			c-1.2,0-2-0.6-2.3-1.7c0-0.1-0.4-1.6-1.3-4.8l-2.9-10.3l-2.6-9.3c-0.2-0.6-0.3-0.7-0.5-0.5c-0.1,0.2-0.2,0.5-0.2,1v24.4
			c0,0.9-0.4,1.3-1.3,1.3h-3.4c-0.9,0-1.3-0.4-1.3-1.3V91.9c0-0.9,0.4-1.3,1.3-1.3H328.4z"/>
		<path class="st4" d="M9.1,87.3L8.1,68.2c0,0,0-13.2,45.2-30.5C70.1,32,85,28.1,85,28.1l-7.5-12.6c0,0,30.2-1.8,52.9,20.9
			c0,0-13.8,15.7-41.9,32.7c0.2-2.3,1.7-17.5,1.7-17.5S23.4,65.7,9.1,87.3"/>
		<g class="st6">
			<g>
				<defs>
					<rect id="SVGID_5_" x="12.9" y="7.7" width="10.6" height="38.1"/>
				</defs>
				<clipPath id="SVGID_6_">
					<use xlink:href="#SVGID_5_"  style="overflow:visible;"/>
				</clipPath>
				<path class="st7" d="M15,15.2V11l6.9,6.2c0.4,0.4,1,0.3,1.4-0.1c0.4-0.4,0.3-1.1-0.1-1.4L14.6,8c-0.3-0.3-0.7-0.3-1.1-0.2
					c-0.4,0.2-0.6,0.5-0.6,0.9v36.1c0,0.6,0.5,1,1,1c0.6,0,1-0.5,1-1V18l6.9,6.2c0.2,0.2,0.4,0.3,0.7,0.3c0.3,0,0.5-0.1,0.7-0.3
					c0.4-0.4,0.3-1.1-0.1-1.4L15,15.2z"/>
			</g>
		</g>
		<g class="st6">
			<g>
				<defs>
					<rect id="SVGID_7_" x="26.9" y="8.2" width="9.8" height="37.5"/>
				</defs>
				<clipPath id="SVGID_8_">
					<use xlink:href="#SVGID_7_"  style="overflow:visible;"/>
				</clipPath>
				<path class="st8" d="M27.9,45.8c-0.6,0-1-0.5-1-1V9.3c0-0.5,0.3-0.8,0.7-1c0.4-0.1,0.9,0.1,1.1,0.4l7.8,12.7
					c0.3,0.5,0.1,1.1-0.3,1.4c-0.5,0.3-1.1,0.1-1.4-0.3l-5.9-9.6v31.9C28.9,45.3,28.4,45.8,27.9,45.8"/>
			</g>
		</g>
		<g class="st6">
			<g>
				<defs>
					<rect id="SVGID_9_" x="37.1" y="70.1" width="17.8" height="28.1"/>
				</defs>
				<clipPath id="SVGID_10_">
					<use xlink:href="#SVGID_9_"  style="overflow:visible;"/>
				</clipPath>
				<path class="st9" d="M54.4,75.4l-7.9-5.2c0,0,0,0,0,0c0,0,0,0,0,0c-0.1,0-0.1,0-0.2,0c-0.1,0-0.2-0.1-0.3-0.1
					c-0.1,0-0.2,0-0.3,0.1c-0.1,0-0.1,0-0.2,0c0,0,0,0,0,0c0,0,0,0,0,0l-7.9,5.2c-0.5,0.3-0.6,0.9-0.3,1.4c0.3,0.5,0.9,0.6,1.4,0.3
					l6.3-4.2v24.2c0,0.6,0.5,1,1,1c0.6,0,1-0.5,1-1V72.9l6.3,4.2c0.5,0.3,1.1,0.2,1.4-0.3C55,76.3,54.9,75.7,54.4,75.4"/>
			</g>
		</g>
		<g class="st6">
			<g>
				<defs>
					<rect id="SVGID_11_" x="55.9" y="70.1" width="11.4" height="27.3"/>
				</defs>
				<clipPath id="SVGID_12_">
					<use xlink:href="#SVGID_11_"  style="overflow:visible;"/>
				</clipPath>
				<path class="st10" d="M67.2,82.2l-4.4-11.5c-0.1-0.3-0.3-0.5-0.5-0.6c0,0,0,0,0,0c0,0-0.1,0-0.1,0c-0.1,0-0.2-0.1-0.3-0.1
					c-0.4,0-0.8,0.2-1,0.6l-5,11.5c-0.1,0.3-0.1,0.6,0.1,0.9l4.4,7.3l-3.2,5.4c-0.3,0.5-0.1,1.1,0.3,1.4c0.2,0.1,0.3,0.1,0.5,0.1
					c0.3,0,0.7-0.2,0.9-0.5l2.7-4.5l2.7,4.5c0.2,0.3,0.5,0.5,0.9,0.5c0.2,0,0.4,0,0.5-0.1c0.5-0.3,0.6-0.9,0.4-1.4l-3.2-5.4l4.4-7.3
					C67.3,82.8,67.4,82.4,67.2,82.2 M61.6,88.4l-3.6-6l3.8-8.7l3.3,8.7L61.6,88.4z"/>
			</g>
		</g>
		<g class="st6">
			<g>
				<defs>
					<rect id="SVGID_13_" x="69.6" y="70.4" width="8.4" height="26.5"/>
				</defs>
				<clipPath id="SVGID_14_">
					<use xlink:href="#SVGID_13_"  style="overflow:visible;"/>
				</clipPath>
				<path class="st11" d="M70.6,97c-0.2,0-0.3,0-0.5-0.1c-0.5-0.3-0.7-0.9-0.4-1.4l5.6-10.9l-4.6,0.3c-0.4,0-0.7-0.2-0.9-0.5
					c-0.2-0.3-0.2-0.7-0.1-1L76,71c0.3-0.5,0.9-0.7,1.4-0.4c0.5,0.3,0.7,0.9,0.4,1.4l-5.6,10.9l4.6-0.3c0.4,0,0.7,0.2,0.9,0.5
					c0.2,0.3,0.2,0.7,0.1,1l-6.4,12.4C71.3,96.8,70.9,97,70.6,97"/>
			</g>
		</g>
	</g>
</g>
</svg>
