<svg width="124" height="130" viewBox="0 0 124 130" fill="none" xmlns="http://www.w3.org/2000/svg">
<circle cx="62" cy="66" r="59.5" stroke="#E96524" stroke-opacity="0.3"/>
<mask id="mask0" mask-type="alpha" maskUnits="userSpaceOnUse" x="62" y="4" width="62" height="126">
<rect x="62" y="4" width="62" height="126" fill="#C4C4C4"/>
</mask>
<g mask="url(#mask0)">
<circle cx="62" cy="66" r="59.5" stroke="url(#paint0_linear)" stroke-width="5"/>
</g>
<path d="M9.60102 15.774H7.86502V18H6.10102V15.774H0.725023V14.514L5.55502 8.2H7.50102L2.95102 14.234H6.15702V12.26H7.86502V14.234H9.60102V15.774Z" fill="#222222"/>
<g clip-path="url(#clip0)">
<path d="M88.255 58.3002C87.843 58.3002 87.51 58.634 87.51 59.0452V66.0543C87.51 67.975 85.9467 69.5387 84.026 69.5387C83.2299 69.5387 67.3325 69.5387 66.5372 69.5387V65.7671C70.739 64.5906 72.8852 61.3836 73.7481 60.3479L78.8796 65.8792C79.1592 66.181 79.6307 66.1985 79.9325 65.9189C80.2338 65.6389 80.2518 65.1678 79.9718 64.8661L74.5942 59.0696C76.0964 56.624 77.3049 53.52 77.9618 50.7406H81.6403C82.0519 50.7406 82.3853 50.4072 82.3853 49.9956C82.3853 49.584 82.0519 49.2506 81.6403 49.2506C78.2784 49.2506 77.5216 49.2506 74.2009 49.2506V46.1656C74.2009 45.754 73.8675 45.4206 73.4559 45.4206C73.0446 45.4206 72.7109 45.754 72.7109 46.1656V49.2506H64.5081C64.0969 49.2506 63.7635 49.5844 63.7635 49.9956C63.7635 50.4072 64.0969 50.7406 64.5081 50.7406H76.4256C75.8145 53.1481 74.8074 55.7695 73.5398 57.9332L69.5099 53.5894C69.2303 53.2877 68.7588 53.2698 68.4571 53.5498C68.1557 53.8294 68.1378 54.3009 68.4178 54.6026L72.717 59.2367C72.5121 59.4419 70.4415 62.9995 66.4487 64.2439C66.0435 62.2492 64.2766 60.7435 62.164 60.7435H58.6392V47.0716C58.6392 45.4519 59.7375 44.0584 61.3099 43.6827C61.71 43.5877 61.9576 43.1852 61.8611 42.7851C61.7657 42.3857 61.3644 42.1385 60.9643 42.2338C58.7174 42.7702 57.1492 44.7595 57.1492 47.0716V60.7435H46.5554C46.1434 60.7435 45.8104 61.0773 45.8104 61.4885C45.8104 61.9005 46.1434 62.2332 46.5554 62.2332H62.164C63.7643 62.2332 65.0475 63.5385 65.0475 65.1167V81.4028C65.0475 82.9916 63.7543 84.2859 62.164 84.2859C61.5601 84.2859 43.9866 84.2859 43.3732 84.2859C41.7832 84.2859 40.49 82.9916 40.49 81.4028V65.1167C40.49 63.6473 41.5951 62.2332 43.5757 62.2332C43.987 62.2332 44.3207 61.9005 44.3207 61.4885C44.3207 61.0773 43.987 60.7435 43.5757 60.7435C40.7334 60.7435 39 62.8672 39 65.1167V81.4028C39 83.5718 40.5881 85.3784 42.664 85.7183L40.1711 89.5677C39.2876 90.9319 40.973 92.51 42.2776 91.5254L49.8688 85.7759H62.164C64.5756 85.7759 66.5372 83.8133 66.5372 81.4028V71.0283H76.4943L85.3768 77.7555C86.7848 78.8198 88.6105 77.1154 87.6553 75.6388L84.6455 70.9906C87.0968 70.6839 89 68.5869 89 66.0543V59.0452C89 58.634 88.6662 58.3002 88.255 58.3002ZM41.5139 90.2342L44.4001 85.7759H47.4019L41.5139 90.2342ZM86.39 76.5615C86.3049 76.6401 86.826 76.9838 78.9624 71.0283H82.8946C86.7131 76.9262 86.4747 76.483 86.39 76.5615Z" fill="#222222"/>
<path d="M84.026 42.0977H64.1068C63.6956 42.0977 63.3618 42.4314 63.3618 42.8427C63.3618 43.2547 63.6956 43.5877 64.1068 43.5877H84.026C85.9467 43.5877 87.51 45.1509 87.51 47.0716V56.0656C87.51 56.4768 87.843 56.8102 88.255 56.8102C88.6662 56.8102 89 56.4768 89 56.0656V47.0716C89 44.3293 86.7684 42.0977 84.026 42.0977Z" fill="#222222"/>
<path d="M43.2948 77.1868L43.8335 75.3214H47.0664L47.6055 77.1879C47.816 77.8612 49.2721 77.3973 49.0527 76.7435L46.4012 68.0647C46.1742 67.3845 44.7315 67.367 44.4988 68.0658L41.8342 76.7424C41.6152 77.3989 43.0843 77.8608 43.2948 77.1868ZM45.4433 69.7176L46.7162 74.0835H44.1707L45.4433 69.7176Z" fill="#222222"/>
<path d="M55.9118 69.9954C55.9118 68.4032 55.0108 67.6292 53.1572 67.6292H50.72C50.3927 67.6292 50.041 67.7913 50.041 68.1476V77.0125C50.041 77.2574 50.2787 77.5176 50.72 77.5176H53.4384C54.6766 77.5176 56.1529 77.0209 56.1529 74.6558C56.1529 73.4847 55.9797 72.6378 54.8468 72.161C55.5254 71.8055 55.9118 71.0242 55.9118 69.9954ZM51.5463 68.9872H53.0634C53.9457 68.9872 54.3932 69.403 54.3932 70.2231C54.3932 71.1181 53.9667 71.5529 53.0901 71.5529H51.5463V68.9872ZM53.1706 76.1596H51.5463V72.7771H53.1706C54.3837 72.7771 54.6339 73.466 54.6339 74.5486C54.6343 75.6175 54.1418 76.1596 53.1706 76.1596Z" fill="#222222"/>
<path d="M60.4287 68.9872C61.3828 68.9872 61.8932 69.4537 61.9458 70.3727C61.9595 70.7057 62.2292 70.8888 62.7053 70.8888C63.186 70.8888 63.4644 70.7603 63.4644 70.1026C63.4644 68.6233 62.2231 67.6292 60.3753 67.6292C58.4542 67.6292 57.3525 68.7358 57.3525 70.6649V74.562C57.3525 76.4915 58.4493 77.5977 60.3616 77.5977C62.2178 77.5977 63.4644 76.5716 63.4644 75.0442C63.4644 74.3892 63.1688 74.2576 62.692 74.2576C62.2231 74.2576 61.9721 74.4308 61.9462 74.7718C61.8813 75.4817 61.7078 76.2397 60.4554 76.2397C59.3896 76.2397 58.8716 75.6908 58.8716 74.5616V70.6649C58.8712 69.5518 59.3953 68.9872 60.4287 68.9872Z" fill="#222222"/>
</g>
<defs>
<linearGradient id="paint0_linear" x1="153" y1="40.1667" x2="-17.5667" y2="40.1667" gradientUnits="userSpaceOnUse">
<stop offset="0.53125" stop-color="#E96524"/>
<stop offset="0.53135" stop-color="#E96524" stop-opacity="0"/>
</linearGradient>
<clipPath id="clip0">
<rect width="50" height="50" fill="white" transform="translate(39 42)"/>
</clipPath>
</defs>
</svg>
