<svg width="123" height="130" viewBox="0 0 123 130" fill="none" xmlns="http://www.w3.org/2000/svg">
<circle cx="61" cy="66" r="59.5" stroke="#E96524" stroke-opacity="0.3"/>
<mask id="mask0" mask-type="alpha" maskUnits="userSpaceOnUse" x="61" y="4" width="62" height="126">
<rect x="61" y="4" width="62" height="126" fill="#C4C4C4"/>
</mask>
<g mask="url(#mask0)">
<circle cx="61" cy="66" r="59.5" stroke="url(#paint0_linear)" stroke-width="5"/>
</g>
<mask id="mask1" mask-type="alpha" maskUnits="userSpaceOnUse" x="0" y="32" width="62" height="96">
<rect x="62" y="128" width="62" height="96" transform="rotate(-180 62 128)" fill="#C4C4C4"/>
</mask>
<g mask="url(#mask1)">
<circle cx="62" cy="66" r="59.5" transform="rotate(-180 62 66)" stroke="url(#paint1_linear)" stroke-width="5"/>
</g>
<path d="M8.24921 8.2V9.418L4.44121 18H2.49521L6.17721 9.74H2.32721V11.406H0.633211V8.2H8.24921Z" fill="#222222"/>
<g clip-path="url(#clip0)">
<path d="M89.7723 57.7475C89.575 57.2768 89.2062 56.9109 88.7339 56.7179L85.3983 55.353C84.9265 55.16 84.4069 55.1619 83.9362 55.3595C83.465 55.5571 83.0996 55.926 82.9062 56.3979L79.109 65.6786V50.5129C79.109 50.3161 79.0308 50.1269 78.8916 49.9876L69.121 40.2174C68.9818 40.0782 68.793 40 68.5961 40H40.7427C40.3326 40 40 40.3326 40 40.7427V46.4735C40 46.8836 40.3326 47.2163 40.7427 47.2163C41.1528 47.2163 41.4851 46.8836 41.4851 46.4735V41.4851H67.853V50.5129C67.853 50.923 68.1857 51.2553 68.5957 51.2553H77.624V69.3087L74.3502 77.3093C74.309 77.41 74.2903 77.5187 74.296 77.6274L74.6455 84.6171C74.66 84.9047 74.8392 85.158 75.1059 85.2671C75.1967 85.3045 75.2921 85.3224 75.387 85.3224C75.5701 85.3224 75.7502 85.2549 75.8898 85.1263L77.6236 83.5303V88.5149H41.4851V49.444C41.4851 49.034 41.1528 48.7013 40.7427 48.7013C40.3326 48.7013 40 49.034 40 49.444V89.2573C40 89.6674 40.3326 90 40.7427 90H78.3663C78.7764 90 79.109 89.6674 79.109 89.2573V82.1631L81.0389 80.3866C81.119 80.3126 81.1816 80.2222 81.2231 80.1215L84.5896 71.8932C84.7449 71.5136 84.5629 71.0799 84.1833 70.9246C83.8042 70.7693 83.3704 70.9509 83.2152 71.3305L80.1295 78.8718L76.0058 77.1845L82.3424 61.698L86.4661 63.3852L84.2799 68.7285C84.1246 69.108 84.3062 69.5418 84.6861 69.697C85.0657 69.8523 85.499 69.6707 85.6543 69.2912L89.7791 59.2101C89.9722 58.7378 89.9699 58.2182 89.7723 57.7475ZM69.3385 42.5349L76.5738 49.7706H69.3385V42.5349ZM75.8376 78.7199L79.1735 80.0848L76.0497 82.9607L75.8376 78.7199ZM88.4043 58.6474L87.0284 62.0104L82.9047 60.3232L84.2806 56.9601C84.3237 56.8552 84.4054 56.7732 84.5103 56.7294C84.6156 56.6851 84.7311 56.6843 84.836 56.7274L88.1716 58.0923C88.2765 58.1351 88.3585 58.2167 88.4024 58.3216C88.4467 58.4269 88.4474 58.5425 88.4043 58.6474Z" fill="#222222"/>
<path d="M64.712 48.1069H55.5044C55.0944 48.1069 54.7617 48.4392 54.7617 48.8493C54.7617 49.2594 55.0944 49.592 55.5044 49.592H64.712C65.1221 49.592 65.4547 49.2594 65.4547 48.8493C65.4547 48.4392 65.1221 48.1069 64.712 48.1069Z" fill="#222222"/>
<path d="M45.7432 64.3933H51.614C52.0241 64.3933 52.3564 64.0607 52.3564 63.6506V58.3916L53.4645 56.981C53.7178 56.6586 53.6618 56.1917 53.3394 55.9384C53.0171 55.6851 52.5502 55.7412 52.2969 56.0635L51.5316 57.0374H45.7432C45.3331 57.0374 45.0005 57.3697 45.0005 57.7798V63.6506C45.0005 64.0607 45.3331 64.3933 45.7432 64.3933ZM46.4856 58.5225H50.3647L49.1829 60.0266L48.3567 59.2C48.0667 58.9101 47.5964 58.9101 47.3065 59.2C47.0166 59.4903 47.0166 59.9603 47.3065 60.2502L48.7248 61.6685C48.8644 61.8081 49.0536 61.8859 49.2497 61.8859C49.2646 61.8859 49.2794 61.8855 49.2943 61.8848C49.506 61.8722 49.7025 61.7692 49.8337 61.6021L50.8713 60.2818V62.9083H46.4856V58.5225Z" fill="#222222"/>
<path d="M72.6319 58.1907H56.7417C56.3317 58.1907 55.999 58.5233 55.999 58.9334C55.999 59.3435 56.3317 59.6761 56.7417 59.6761H72.6319C73.0423 59.6761 73.3746 59.3435 73.3746 58.9334C73.3746 58.5233 73.0423 58.1907 72.6319 58.1907Z" fill="#222222"/>
<path d="M56.7417 63.2402H69.5134C69.9234 63.2402 70.2557 62.9075 70.2557 62.4975C70.2557 62.0874 69.9234 61.7551 69.5134 61.7551H56.7417C56.3317 61.7551 55.999 62.0874 55.999 62.4975C55.999 62.9075 56.3317 63.2402 56.7417 63.2402Z" fill="#222222"/>
<path d="M45.0005 73.4025C45.0005 73.8126 45.3331 74.1453 45.7432 74.1453H51.614C52.0241 74.1453 52.3564 73.8126 52.3564 73.4025V68.1436L53.4645 66.7329C53.7178 66.4106 53.6618 65.9437 53.3394 65.6904C53.0171 65.4371 52.5502 65.4931 52.2969 65.8155L51.5316 66.7894H45.7432C45.3331 66.7894 45.0005 67.1216 45.0005 67.5317V73.4025ZM46.4856 68.2744H50.3647L49.1829 69.7786L48.3567 68.9519C48.0667 68.662 47.5964 68.662 47.3065 68.9519C47.0166 69.2422 47.0166 69.7122 47.3065 70.0021L48.7248 71.4204C48.8644 71.56 49.0536 71.6379 49.2497 71.6379C49.2646 71.6379 49.2794 71.6375 49.2943 71.6367C49.506 71.6241 49.7025 71.5211 49.8337 71.3541L50.8713 70.0338V72.6602H46.4856V68.2744Z" fill="#222222"/>
<path d="M72.6319 67.9426H56.7417C56.3317 67.9426 55.999 68.2753 55.999 68.6853C55.999 69.0954 56.3317 69.4277 56.7417 69.4277H72.6319C73.0423 69.4277 73.3746 69.0954 73.3746 68.6853C73.3746 68.2753 73.0423 67.9426 72.6319 67.9426Z" fill="#222222"/>
<path d="M56.7417 72.9921H61.4941C61.9042 72.9921 62.2364 72.6595 62.2364 72.2494C62.2364 71.8393 61.9042 71.5071 61.4941 71.5071H56.7417C56.3317 71.5071 55.999 71.8393 55.999 72.2494C55.999 72.6595 56.3317 72.9921 56.7417 72.9921Z" fill="#222222"/>
<path d="M45.0005 83.1544C45.0005 83.5645 45.3331 83.8971 45.7432 83.8971H51.614C52.0241 83.8971 52.3564 83.5645 52.3564 83.1544V77.284C52.3564 76.8739 52.0241 76.5413 51.614 76.5413H45.7432C45.3331 76.5413 45.0005 76.8739 45.0005 77.284V83.1544ZM46.4855 78.0263H50.8713V82.4117H46.4855V78.0263Z" fill="#222222"/>
<path d="M73.3746 78.4373C73.3746 78.0272 73.0423 77.6946 72.6319 77.6946H56.7417C56.3317 77.6946 55.999 78.0272 55.999 78.4373C55.999 78.8474 56.3317 79.1796 56.7417 79.1796H72.6319C73.0423 79.1796 73.3746 78.8474 73.3746 78.4373Z" fill="#222222"/>
<path d="M56.7417 81.2585C56.3317 81.2585 55.999 81.5912 55.999 82.0013C55.999 82.4113 56.3317 82.744 56.7417 82.744H70.2557C70.6662 82.744 70.9984 82.4113 70.9984 82.0013C70.9984 81.5912 70.6662 81.2585 70.2557 81.2585H56.7417Z" fill="#222222"/>
</g>
<defs>
<linearGradient id="paint0_linear" x1="152" y1="40.1667" x2="-18.5667" y2="40.1667" gradientUnits="userSpaceOnUse">
<stop offset="0.53125" stop-color="#E96524"/>
<stop offset="0.53135" stop-color="#E96524" stop-opacity="0"/>
</linearGradient>
<linearGradient id="paint1_linear" x1="153" y1="40.1667" x2="-17.5667" y2="40.1667" gradientUnits="userSpaceOnUse">
<stop offset="0.53125" stop-color="#E96524"/>
<stop offset="0.53135" stop-color="#E96524" stop-opacity="0"/>
</linearGradient>
<clipPath id="clip0">
<rect width="50" height="50" fill="white" transform="translate(40 40)"/>
</clipPath>
</defs>
</svg>
