<svg width="123" height="130" viewBox="0 0 123 130" fill="none" xmlns="http://www.w3.org/2000/svg">
<circle cx="61" cy="66" r="59.5" stroke="#E96524" stroke-opacity="0.3"/>
<mask id="mask0" mask-type="alpha" maskUnits="userSpaceOnUse" x="61" y="4" width="62" height="126">
<rect x="61" y="4" width="62" height="126" fill="#C4C4C4"/>
</mask>
<g mask="url(#mask0)">
<circle cx="61" cy="66" r="59.5" stroke="url(#paint0_linear)" stroke-width="5"/>
</g>
<mask id="mask1" mask-type="alpha" maskUnits="userSpaceOnUse" x="0" y="66" width="62" height="62">
<rect x="62" y="128" width="62" height="62" transform="rotate(-180 62 128)" fill="#C4C4C4"/>
</mask>
<g mask="url(#mask1)">
<circle cx="62" cy="66" r="59.5" transform="rotate(-180 62 66)" stroke="url(#paint1_linear)" stroke-width="5"/>
</g>
<path d="M5.17933 11.952C5.82333 11.952 6.402 12.078 6.91533 12.33C7.42866 12.5727 7.82999 12.9227 8.11933 13.38C8.40866 13.8373 8.55333 14.3647 8.55333 14.962C8.55333 15.5967 8.39466 16.1567 8.07733 16.642C7.76 17.118 7.33066 17.4867 6.78933 17.748C6.248 18.0093 5.64133 18.14 4.96933 18.14C3.62533 18.14 2.57999 17.72 1.83333 16.88C1.09599 16.04 0.727328 14.836 0.727328 13.268C0.727328 12.1667 0.927995 11.2287 1.32933 10.454C1.73066 9.67 2.29066 9.07733 3.00933 8.676C3.73733 8.26533 4.57733 8.06 5.52933 8.06C6.03333 8.06 6.50466 8.116 6.94333 8.228C7.39133 8.33067 7.77866 8.48467 8.10533 8.69L7.43333 10.062C6.94799 9.74467 6.32733 9.586 5.57133 9.586C4.62866 9.586 3.89133 9.87533 3.35933 10.454C2.82733 11.0327 2.56133 11.868 2.56133 12.96V12.974C2.85066 12.638 3.21933 12.386 3.66733 12.218C4.11533 12.0407 4.61933 11.952 5.17933 11.952ZM4.87133 16.712C5.44066 16.712 5.90266 16.5627 6.25733 16.264C6.612 15.956 6.78933 15.55 6.78933 15.046C6.78933 14.5327 6.612 14.1267 6.25733 13.828C5.90266 13.5293 5.42666 13.38 4.82933 13.38C4.24133 13.38 3.76066 13.5387 3.38733 13.856C3.02333 14.1733 2.84133 14.5747 2.84133 15.06C2.84133 15.536 3.01866 15.9327 3.37333 16.25C3.73733 16.558 4.23666 16.712 4.87133 16.712Z" fill="#222222"/>
<g clip-path="url(#clip0)">
<path d="M84.2094 44.9856C82.7312 44.9856 81.585 45.6605 81.585 47.5137V50.3523C81.585 51.9805 82.4741 52.6982 83.6952 52.8483V53.4695C83.6952 53.8123 83.9523 53.9836 84.2093 53.9836C84.4664 53.9836 84.7234 53.8122 84.7234 53.4695V52.8483C85.9446 52.6982 86.8444 51.9805 86.8444 50.3523V47.5137C86.8446 45.6605 85.6877 44.9856 84.2094 44.9856ZM85.1736 50.3523C85.1736 50.8451 85.0022 51.1557 84.7236 51.3164V50.8451C84.7236 50.4916 84.4666 50.3416 84.2095 50.3416C83.9525 50.3416 83.6954 50.4916 83.6954 50.8451V51.3164C83.4061 51.1557 83.2562 50.8451 83.2562 50.3523V47.5137C83.2562 46.7852 83.6097 46.4425 84.2096 46.4425C84.8095 46.4425 85.1737 46.7853 85.1737 47.5137V50.3523H85.1736Z" fill="#222222"/>
<path d="M74.0367 54.2793C73.9365 52.215 73.0688 50.267 71.5935 48.794C70.1184 47.3213 68.1691 46.4563 66.1045 46.358C65.926 46.3495 65.7454 46.3466 65.5678 46.3494C63.7034 46.3788 61.8143 45.9707 60.1033 45.1691C58.5977 44.4638 56.9853 44.1062 55.3107 44.1062C55.3105 44.1062 55.3108 44.1062 55.3107 44.1062C52.2854 44.1062 49.4376 45.2961 47.293 47.4563C45.1478 49.6172 43.9784 52.474 44.0003 55.4951V73.4186C44.0003 73.8271 44.3315 74.1583 44.74 74.1583C45.1485 74.1583 45.4797 73.8271 45.4797 73.4186V55.4899C45.4607 52.8606 46.4775 50.3778 48.3429 48.4987C50.2079 46.6202 52.6824 45.5857 55.3108 45.5857C56.7668 45.5857 58.1681 45.8963 59.4758 46.5089C61.3892 47.4053 63.5053 47.8621 65.5913 47.8287C65.738 47.8264 65.8869 47.8287 66.0343 47.8358C69.5239 48.0018 72.39 50.8637 72.5592 54.3511C72.5774 54.7241 72.5677 55.4781 72.5676 55.4953V66.8627C72.5676 67.2712 72.8988 67.6024 73.3073 67.6024C73.7158 67.6024 74.047 67.2712 74.047 66.8627V55.505C74.0473 55.4722 74.0571 54.6978 74.0367 54.2793Z" fill="#222222"/>
<path d="M73.3077 69.0818C72.8992 69.0818 72.568 69.413 72.568 69.8215V79.8864C72.568 81.5191 71.8857 83.0578 70.7081 84.1509C70.4906 81.9349 69.6521 79.8609 68.2462 78.097C66.9537 76.4755 65.2384 75.2273 63.319 74.4905C66.2925 73.1552 68.5412 70.4851 69.2969 67.249C70.9205 66.8235 72.0793 65.3381 72.0793 63.6418C72.0793 62.0397 71.0695 60.6489 69.6049 60.129L69.6173 58.31C69.6183 58.1569 69.5719 58.0075 69.4846 57.8823C69.4835 57.8806 69.4823 57.8789 69.4812 57.8772C69.392 57.751 69.2657 57.6558 69.1197 57.6051C67.0715 56.8931 65.2417 55.6476 63.8282 54.0032L63.7195 53.8767C63.4983 53.6193 63.1306 53.5457 62.8273 53.6975L62.0829 54.0703C58.7977 55.7156 55.2841 56.7853 51.6396 57.2497L49.1243 57.5701C48.7568 57.6169 48.4807 57.9284 48.4781 58.2988L48.4656 60.1409C47.0213 60.6719 46.0206 62.0657 46.0206 63.6418C46.0206 65.3032 47.1322 66.7624 48.7035 67.2215C49.4677 70.5318 51.7913 73.252 54.8559 74.5643C50.8256 76.1915 47.9809 80.0095 47.6348 84.4073C46.2846 83.3148 45.4804 81.6664 45.4804 79.8864V76.3776C45.4804 75.9691 45.1492 75.6379 44.7407 75.6379C44.3322 75.6379 44.001 75.9691 44.001 76.3776V79.8864C44.001 82.4884 45.3709 84.8661 47.5987 86.1767V86.6491C47.5987 87.9166 48.6299 88.9478 49.8974 88.9478H68.4685C69.736 88.9478 70.7673 87.9166 70.7673 86.6491V85.9735C70.7886 85.9619 70.8102 85.9511 70.8308 85.9373C72.8451 84.5764 74.0477 82.3145 74.0477 79.8865V69.8215C74.0474 69.413 73.7162 69.0818 73.3077 69.0818ZM62.9794 55.2759C64.4026 56.8345 66.1698 58.0485 68.1343 58.818L68.0932 64.843C68.0932 69.8553 64.0153 73.9332 59.003 73.9332C53.9906 73.9332 49.9127 69.8553 49.9127 64.8481L49.953 58.956L51.8265 58.7173C55.6371 58.2318 59.3107 57.1135 62.7453 55.3931L62.9794 55.2759ZM57.7965 75.3433C58.1926 75.3885 58.595 75.4125 59.0029 75.4125C59.5319 75.4125 60.0518 75.373 60.5601 75.2975V75.3965C60.5601 76.1585 59.9402 76.7784 59.1783 76.7784C58.4163 76.7784 57.7965 76.1585 57.7965 75.3965V75.3433ZM70.5998 63.6418C70.5998 64.4293 70.1856 65.1408 69.5489 65.5443C69.564 65.314 69.5725 65.0819 69.5725 64.8479L69.5935 61.7665C70.2059 62.1723 70.5998 62.8652 70.5998 63.6418ZM47.4998 63.6418C47.4998 62.8949 47.8726 62.2169 48.454 61.8045L48.4333 64.8429C48.4333 65.0563 48.4404 65.2681 48.453 65.4783C47.8721 65.066 47.4998 64.3882 47.4998 63.6418ZM69.2876 86.6491C69.2876 87.1009 68.92 87.4685 68.4682 87.4685H65.6907V85.4452C65.6907 85.0367 65.3595 84.7055 64.951 84.7055C64.5425 84.7055 64.2113 85.0367 64.2113 85.4452V87.4685H55.0282V85.4452C55.0282 85.0367 54.6971 84.7055 54.2885 84.7055C53.88 84.7055 53.5489 85.0367 53.5489 85.4452V87.4685H49.8971C49.4453 87.4685 49.0777 87.1009 49.0777 86.6491V85.3123C49.0777 80.8166 52.0798 76.867 56.3266 75.6174C56.4398 77.0922 57.6751 78.2578 59.1784 78.2578C60.6824 78.2578 61.9182 77.091 62.0304 75.6153C64.0102 76.1974 65.7931 77.3928 67.0893 79.0192C68.5275 80.8234 69.2877 82.9996 69.2877 85.3123V86.6491H69.2876Z" fill="#222222"/>
<path d="M84.7641 39.0594C79.2895 38.8473 74.7681 43.2396 74.7681 48.668C74.7681 50.2348 75.1453 51.7607 75.8659 53.1324C76.0182 53.4225 76.029 53.7662 75.8844 54.0601L74.8454 56.1724L74.8372 56.2028C74.6899 56.7522 74.8041 57.3493 75.1769 57.7789C75.5087 58.1612 75.9683 58.3669 76.4479 58.3669C76.595 58.3669 76.7441 58.3474 76.892 58.3079L76.9619 58.2892L79.0939 57.2404C79.3873 57.0961 79.733 57.0923 80.0243 57.2408C81.3689 57.9255 82.8589 58.284 84.384 58.284C89.8125 58.284 94.2047 53.7626 93.9926 48.288C93.7994 43.2973 89.7549 39.2527 84.7641 39.0594ZM84.3841 56.8046C82.8306 56.8046 81.3203 56.3653 80.0165 55.5341C79.7987 55.3953 79.5242 55.3801 79.2924 55.4941L76.4617 56.8867C76.3916 56.8903 76.341 56.8572 76.3093 56.8254C76.2774 56.7936 76.2443 56.7431 76.2479 56.6729L77.6282 53.8672C77.7439 53.6319 77.7265 53.353 77.5824 53.134C76.6094 51.6555 76.1475 49.9072 76.2657 48.1202C76.5417 43.9458 80.0007 40.6353 84.183 40.5338C88.7611 40.4227 92.5209 44.1145 92.5209 48.668C92.5207 53.1546 88.8707 56.8046 84.3841 56.8046Z" fill="#222222"/>
<path d="M54.3569 64.6892C53.9484 64.6892 53.6172 65.0204 53.6172 65.4289V66.133C53.6172 66.5415 53.9484 66.8727 54.3569 66.8727C54.7654 66.8727 55.0966 66.5415 55.0966 66.133V65.4289C55.0966 65.0204 54.7654 64.6892 54.3569 64.6892Z" fill="#222222"/>
<path d="M63.2431 66.8727C63.6516 66.8727 63.9828 66.5415 63.9828 66.133V65.4289C63.9828 65.0204 63.6516 64.6892 63.2431 64.6892C62.8346 64.6892 62.5034 65.0204 62.5034 65.4289V66.133C62.5034 66.5415 62.8346 66.8727 63.2431 66.8727Z" fill="#222222"/>
<path d="M59.4802 69.8846C60.2086 69.8846 60.8806 69.4885 61.2338 68.851C61.4319 68.4937 61.3027 68.0435 60.9454 67.8455C60.588 67.6475 60.1378 67.7767 59.9399 68.134C59.8472 68.3014 59.671 68.4053 59.4802 68.4053C59.2899 68.4053 59.114 68.3018 59.0212 68.1352C58.8223 67.7784 58.3719 67.6502 58.015 67.8492C57.6582 68.048 57.5301 68.4985 57.729 68.8554C58.0827 69.4901 58.7537 69.8846 59.4802 69.8846Z" fill="#222222"/>
<path d="M52.1734 63.7019C52.3106 63.8135 52.4756 63.8678 52.6397 63.8678C52.8546 63.8678 53.0678 63.7746 53.214 63.5948C53.5196 63.219 53.9891 63.0203 54.4711 63.063C54.878 63.0996 55.2372 62.7987 55.2734 62.3918C55.3096 61.9848 55.009 61.6256 54.6021 61.5894C53.6307 61.5031 52.6825 61.9038 52.0663 62.6613C51.8085 62.9783 51.8564 63.4441 52.1734 63.7019Z" fill="#222222"/>
<path d="M63.6016 63.063C64.0827 63.0204 64.553 63.2191 64.8587 63.5948C65.0049 63.7746 65.2181 63.8678 65.433 63.8678C65.5971 63.8678 65.7622 63.8135 65.8993 63.7019C66.2162 63.4441 66.2643 62.9783 66.0064 62.6613C65.3902 61.9038 64.4415 61.5031 63.4707 61.5895C63.0637 61.6257 62.7632 61.9849 62.7993 62.3918C62.8354 62.7987 63.1955 63.0989 63.6016 63.063Z" fill="#222222"/>
</g>
<defs>
<linearGradient id="paint0_linear" x1="152" y1="40.1667" x2="-18.5667" y2="40.1667" gradientUnits="userSpaceOnUse">
<stop offset="0.53125" stop-color="#E96524"/>
<stop offset="0.53135" stop-color="#E96524" stop-opacity="0"/>
</linearGradient>
<linearGradient id="paint1_linear" x1="153" y1="40.1667" x2="-17.5667" y2="40.1667" gradientUnits="userSpaceOnUse">
<stop offset="0.53125" stop-color="#E96524"/>
<stop offset="0.53135" stop-color="#E96524" stop-opacity="0"/>
</linearGradient>
<clipPath id="clip0">
<rect width="50" height="50" fill="white" transform="translate(44 39)"/>
</clipPath>
</defs>
</svg>
