<svg width="123" height="126" viewBox="0 0 123 126" fill="none" xmlns="http://www.w3.org/2000/svg">
<circle cx="61" cy="66" r="59.5" stroke="#E96524" stroke-opacity="0.3"/>
<mask id="mask0" mask-type="alpha" maskUnits="userSpaceOnUse" x="61" y="4" width="62" height="62">
<rect x="61" y="4" width="62" height="62" fill="#C4C4C4"/>
</mask>
<g mask="url(#mask0)">
<circle cx="61" cy="66" r="59.5" stroke="url(#paint0_linear)" stroke-width="5"/>
</g>
<path d="M8.13978 16.46V18H0.915781V16.782L4.80778 13.086C5.24645 12.666 5.54045 12.302 5.68978 11.994C5.84845 11.6767 5.92778 11.364 5.92778 11.056C5.92778 10.5987 5.77378 10.2487 5.46578 10.006C5.15778 9.76333 4.70511 9.642 4.10778 9.642C3.10911 9.642 2.34378 9.98267 1.81178 10.664L0.537781 9.684C0.920448 9.17067 1.43378 8.774 2.07778 8.494C2.73111 8.20467 3.45911 8.06 4.26178 8.06C5.32578 8.06 6.17511 8.312 6.80978 8.816C7.44445 9.32 7.76178 10.006 7.76178 10.874C7.76178 11.406 7.64978 11.9053 7.42578 12.372C7.20178 12.8387 6.77245 13.3707 6.13778 13.968L3.51978 16.46H8.13978Z" fill="#222222"/>
<g clip-path="url(#clip0)">
<path d="M82.0834 69.9291C80.2104 68.248 77.8831 67.2039 75.4176 66.9186C75.4176 65.9653 75.4176 50.5425 75.4176 49.8234C75.4176 49.0509 75.0564 48.3616 74.4945 47.9145C74.1614 47.6235 73.5744 47.3839 72.9781 47.3839H66.2437V45.0646C66.2437 42.8242 64.4206 41 62.1799 41H59.3875C58.979 41 58.649 41.3307 58.649 41.7385C58.649 42.1475 58.979 42.4774 59.3875 42.4774H62.1799C63.6058 42.4774 64.7662 43.6386 64.7662 45.0646V47.3839H63.5677V45.0646C63.5677 44.2993 62.9451 43.676 62.1799 43.676H49.3358C48.5706 43.676 47.9472 44.2993 47.9472 45.0646V47.3839H46.7487V45.0646C46.7487 43.6386 47.9099 42.4774 49.3358 42.4774H56.433C56.8408 42.4774 57.1716 42.1475 57.1716 41.7385C57.1716 41.3307 56.8408 41 56.433 41H49.3358C47.0954 41 45.2712 42.8242 45.2712 45.0646V47.3839H38.5372C37.1921 47.3839 36.0977 48.4783 36.0977 49.8234V54.7695C36.0977 54.7733 36.098 54.7775 36.098 54.7814V67.7418C36.098 68.1496 36.428 68.4803 36.8366 68.4803C37.2444 68.4803 37.5755 68.1496 37.5755 67.7418V59.3754C38.6932 60.9406 40.3632 62.0838 42.2996 62.5187V64.687C42.2996 65.5571 43.0076 66.2651 43.8777 66.2651H46.0971C46.9676 66.2651 47.6756 65.5571 47.6756 64.687V62.7136H63.8396V64.687C63.8396 65.5571 64.5477 66.2651 65.4182 66.2651H67.6376C68.5077 66.2651 69.2157 65.5571 69.2157 64.687V62.5191C71.152 62.0838 72.8225 60.9402 73.9402 59.375V66.8385C71.1089 66.853 68.3353 67.8589 66.125 69.7678C65.8168 70.0337 65.7825 70.5006 66.0495 70.8096C66.3161 71.1182 66.7823 71.1525 67.0913 70.8855C73.8628 65.0414 84.6175 69.7281 84.6175 78.9322C84.6175 84.7969 79.8896 89.5226 73.9993 89.5226C65.4388 89.5226 60.4919 79.9164 65.2557 72.9408C65.4861 72.604 65.3995 72.1443 65.0626 71.9139C64.7258 71.6843 64.2669 71.7701 64.0361 72.1069C63.203 73.3261 62.6083 74.6674 62.2684 76.0769H41.9521C39.5381 76.0769 37.5755 74.1139 37.5755 71.7011V70.6963C37.5755 70.2889 37.2444 69.9577 36.8366 69.9577C36.428 69.9577 36.098 70.2889 36.098 70.6963V71.7011C36.098 74.9287 38.7237 77.5543 41.9521 77.5543H62.0075C61.2067 84.8084 66.8811 91 73.9997 91C77.4409 91 80.704 89.5519 83.0035 86.9885C87.4889 81.9889 87.0174 74.3546 82.0834 69.9291ZM49.4247 45.1534H62.0902V47.3839H49.4247V45.1534ZM46.1982 64.687C46.1982 64.7427 46.1528 64.7881 46.0971 64.7881H43.8777C43.8224 64.7881 43.777 64.7427 43.777 64.687V62.7072C44.0566 62.7163 43.7057 62.7136 46.1982 62.7136V64.687ZM46.1982 61.2362C43.7892 61.2362 44.0013 61.2389 43.777 61.2297V59.2125C43.777 59.1568 43.822 59.1114 43.8777 59.1114H46.0971C46.1528 59.1114 46.1982 59.1568 46.1982 59.2125V61.2362ZM67.7386 64.687C67.7386 64.7427 67.6933 64.7881 67.6376 64.7881H65.4182C65.3625 64.7881 65.3171 64.7427 65.3171 64.687V62.7136C67.8104 62.7136 67.4594 62.7163 67.7386 62.7072V64.687ZM67.7386 61.2297C67.5143 61.2389 67.728 61.2362 65.3171 61.2362V59.2125C65.3171 59.1568 65.3625 59.1114 65.4182 59.1114H67.6376C67.6933 59.1114 67.7386 59.1568 67.7386 59.2125V61.2297ZM73.9406 54.7695C73.9406 57.7316 71.9379 60.2333 69.2161 60.9959V59.2125C69.2161 58.342 68.5077 57.634 67.6376 57.634H65.4182C64.548 57.634 63.84 58.342 63.84 59.2125V61.2362H47.6756V59.2125C47.6756 58.342 46.9676 57.634 46.0971 57.634H43.8777C43.0076 57.634 42.2996 58.342 42.2996 59.2125V60.9959C39.5812 60.2345 37.5804 57.7385 37.5755 54.7817V49.8238C37.5755 49.2928 38.0065 48.8613 38.5375 48.8613H72.9781C73.5072 48.8613 73.9406 49.2928 73.9406 49.8234V54.7695Z" fill="#222222"/>
<path d="M74.0271 70.7769C69.2259 70.7769 65.4189 74.9253 65.9152 79.7513C66.3432 83.9143 69.8157 87.0603 74.0004 87.0603C74.4082 87.0603 74.7389 86.7295 74.7389 86.3217C74.7389 85.914 74.4078 85.5832 74 85.5832C70.3162 85.5828 67.3495 82.6093 67.3495 78.9106C67.3495 75.2404 70.3452 72.2543 74.0275 72.2543C79.3814 72.2543 82.1929 77.9866 79.8411 82.1588L79.6839 79.9504C79.6549 79.5434 79.3002 79.2363 78.8947 79.2661C78.4876 79.2947 78.1813 79.6483 78.2103 80.055L78.5002 84.1325C78.5357 84.6303 79.0461 84.9515 79.5104 84.7665L83.3079 83.2543C83.6871 83.1033 83.8721 82.6737 83.721 82.2946C83.57 81.9158 83.1404 81.7308 82.7616 81.8818L81.3601 82.4399C83.8595 77.2885 80.2363 70.7769 74.0271 70.7769Z" fill="#222222"/>
<path d="M73.2746 74.9954V78.5991L71.4141 80.3462C70.9259 80.8048 71.2558 81.6234 71.92 81.6234C72.3098 81.6234 72.2618 81.5769 74.5189 79.457C74.6677 79.3174 74.752 79.1225 74.752 78.9184V74.9954C74.752 74.5876 74.4213 74.2568 74.0131 74.2568C73.6053 74.2568 73.2746 74.5876 73.2746 74.9954Z" fill="#222222"/>
</g>
<defs>
<linearGradient id="paint0_linear" x1="152" y1="40.1667" x2="-18.5667" y2="40.1667" gradientUnits="userSpaceOnUse">
<stop offset="0.53125" stop-color="#E96524"/>
<stop offset="0.53135" stop-color="#E96524" stop-opacity="0"/>
</linearGradient>
<clipPath id="clip0">
<rect width="50" height="50" fill="white" transform="translate(36 41)"/>
</clipPath>
</defs>
</svg>
