<svg width="120" height="126" viewBox="0 0 120 126" fill="none" xmlns="http://www.w3.org/2000/svg">
<circle cx="60" cy="66" r="59.5" stroke="#E96524" stroke-opacity="0.3"/>
<mask id="mask0" mask-type="alpha" maskUnits="userSpaceOnUse" x="60" y="4" width="36" height="36">
<rect x="60" y="4" width="36" height="36" fill="#C4C4C4"/>
</mask>
<g mask="url(#mask0)">
<circle cx="60" cy="66" r="59.5" stroke="url(#paint0_linear)" stroke-width="5"/>
</g>
<path d="M4.33798 8.2V18H2.51798V9.726H0.445984V8.2H4.33798Z" fill="#222222"/>
<g clip-path="url(#clip0)">
<path d="M85 69.5392C85 65.7734 81.9362 62.7096 78.1706 62.7096H78.0289V59.7456C78.0289 51.4755 71.7995 44.7471 64.1425 44.7471H60.8745C60.468 44.7471 60.1386 45.0765 60.1386 45.4829C60.1386 45.8893 60.468 46.2187 60.8745 46.2187H64.1425C70.9879 46.2187 76.5572 52.2868 76.5572 59.7456V62.7096H74.3988V59.7456C74.3988 53.477 69.7979 48.3771 64.1425 48.3771H55.6495C49.9942 48.3771 45.3932 53.477 45.3932 59.7456V62.7096H43.2348V59.7456C43.2348 52.2869 48.8041 46.2187 55.6495 46.2187H57.9313C58.3377 46.2187 58.6671 45.8893 58.6671 45.4829C58.6671 45.0765 58.3377 44.7471 57.9313 44.7471H55.6495C47.9925 44.7471 41.7631 51.4754 41.7631 59.7456V62.7114C38.0279 62.7473 35 65.7957 35 69.5392C35 73.3047 38.0633 76.3682 41.8288 76.3687H41.8291H41.8294H41.8295H46.081C47.5687 76.3687 48.7791 75.1584 48.7791 73.6707V65.4077C48.7791 64.1925 47.9713 63.1627 46.8646 62.8261V59.7456C46.8646 55.7872 48.9384 52.3647 51.926 50.7831V50.8504C51.926 52.0765 52.9235 53.074 54.1496 53.074H65.6421C66.8682 53.074 67.8657 52.0765 67.8657 50.8504V50.7831C70.8533 52.3647 72.9271 55.7872 72.9271 59.7456V62.8995C71.9289 63.2957 71.2209 64.2703 71.2209 65.4078V73.6706C71.2209 75.1583 72.4313 76.3686 73.919 76.3686H74.8462V76.5274C74.8462 80.3316 71.7512 83.4266 67.947 83.4266H66.2239V83.258C66.2239 82.0999 65.3213 81.1486 64.1825 81.0707C64.1538 81.0673 64.1245 81.0655 64.0949 81.0655H64.0313C63.6249 81.0655 63.2955 81.395 63.2955 81.8014C63.2955 82.2077 63.6249 82.5372 64.0313 82.5372C64.4289 82.5372 64.7523 82.8606 64.7523 83.258V85.0604C64.7523 85.4578 64.4289 85.7812 64.0313 85.7812H58.7216C57.8273 85.7812 57.0997 85.0535 57.0997 84.1591C57.0997 83.2648 57.8273 82.5371 58.7216 82.5371H61.1517C61.5582 82.5371 61.8875 82.2076 61.8875 81.8013C61.8875 81.3949 61.5582 81.0654 61.1517 81.0654H58.7216C57.0158 81.0654 55.628 82.4533 55.628 84.1591C55.628 85.865 57.0159 87.2528 58.7216 87.2528H64.0313C65.2403 87.2528 66.2239 86.2693 66.2239 85.0604V84.8982H67.947C72.5627 84.8982 76.3179 81.143 76.3179 76.5274V76.3686H78.1705H78.1706H78.1709H78.1712C81.9367 76.3682 85 73.3046 85 69.5392ZM36.4717 69.5272C36.4781 66.5865 38.9762 64.1813 41.917 64.1813H43.6821V74.897H42.5449L41.6669 74.8644C40.2229 74.8108 38.8389 74.209 37.8664 73.1403C36.9978 72.1858 36.4686 70.9173 36.4717 69.5272ZM47.3074 65.4077V73.6706C47.3074 74.3469 46.7573 74.897 46.081 74.897H45.1538V64.1813H46.081C46.7573 64.1813 47.3074 64.7314 47.3074 65.4077ZM66.394 50.8504C66.394 51.265 66.0567 51.6023 65.6421 51.6023H54.1497C53.7351 51.6023 53.3978 51.265 53.3978 50.8504V50.1789C54.1167 49.964 54.8713 49.8488 55.6494 49.8488H64.1424C64.9205 49.8488 65.6752 49.964 66.394 50.1789V50.8504ZM72.6927 73.6706V65.4076C72.6927 64.7313 73.2428 64.1812 73.9191 64.1812H74.8463V74.897H73.9191C73.2428 74.897 72.6927 74.3469 72.6927 73.6706ZM82.1336 73.1403C81.1611 74.209 79.7772 74.8108 78.3332 74.8644L77.4552 74.897H76.318V64.1813H78.083C81.0238 64.1813 83.522 66.5865 83.5284 69.5273C83.5314 70.9173 83.0022 72.1858 82.1336 73.1403Z" fill="#222222"/>
<path d="M62.3974 69.2683C62.6007 68.6648 62.5566 68.0176 62.2731 67.446C61.9896 66.8744 61.5012 66.4476 60.8976 66.2443C59.6502 65.8241 58.294 66.4969 57.8737 67.744C57.4535 68.9911 58.1262 70.3477 59.3735 70.768C59.6231 70.8521 59.8801 70.8939 60.1363 70.8939C60.4993 70.8939 60.8605 70.81 61.1957 70.6437C61.7673 70.3603 62.1941 69.8718 62.3974 69.2683ZM61.0028 68.7985C60.925 69.0294 60.7612 69.2165 60.5419 69.3254C60.3224 69.4341 60.0744 69.4512 59.8434 69.3735C59.3652 69.2123 59.1072 68.6922 59.2684 68.214C59.4295 67.7358 59.9496 67.4778 60.4279 67.639C60.6588 67.7168 60.846 67.8804 60.9547 68.0999C61.0635 68.3194 61.0806 68.5674 61.0028 68.7985Z" fill="#222222"/>
<path d="M61.054 73.458L61.0997 73.5913C61.2027 73.891 61.4279 74.1365 61.7177 74.265C62.0055 74.3924 62.3356 74.3944 62.6242 74.2705C64.113 73.6301 65.2809 72.4562 65.9127 70.9652C66.0352 70.6766 66.0322 70.3464 65.9047 70.0593C65.7765 69.7713 65.5324 69.5471 65.2347 69.444H65.2346L65.0947 69.3957C65.2038 68.7936 65.2009 68.1812 65.0862 67.5797L65.2188 67.5339C65.5184 67.4306 65.7635 67.2051 65.8912 66.915C66.0186 66.6259 66.0198 66.2941 65.8945 66.0048C65.2529 64.5228 64.0815 63.3597 62.5959 62.7299C62.3069 62.6073 61.9762 62.6104 61.6889 62.7384C61.4005 62.867 61.1764 63.1119 61.0739 63.4102L61.0266 63.5477C60.4251 63.4386 59.8134 63.4412 59.2123 63.5555L59.1665 63.4224C59.0632 63.1227 58.8377 62.8773 58.5478 62.7493C58.2598 62.6222 57.9295 62.6205 57.6413 62.7448C56.1567 63.3855 54.9914 64.5575 54.3605 66.0446C54.2373 66.3344 54.2408 66.6659 54.3698 66.9537C54.4991 67.2426 54.7453 67.4666 55.0451 67.5683L55.1779 67.6133C55.0685 68.2145 55.0708 68.826 55.1847 69.4271L55.0517 69.4728C54.7525 69.5756 54.5073 69.8006 54.3791 70.09C54.2513 70.3784 54.2493 70.7099 54.3734 70.9991C55.0181 72.5016 56.1833 73.6776 57.6547 74.3103C57.7993 74.3725 57.9539 74.4035 58.1086 74.4035C58.2681 74.4035 58.4275 74.3704 58.5755 74.3043C58.8649 74.175 59.0889 73.9285 59.1899 73.6279L59.2449 73.4646C59.8446 73.5735 60.4546 73.5712 61.054 73.458ZM58.9995 71.8855C58.6149 71.7562 58.1985 71.9623 58.0681 72.3464L58.0627 72.3622C58.0625 72.3629 58.0598 72.3714 58.0596 72.372L57.9139 72.8051C57.0457 72.3509 56.3389 71.635 55.8794 70.7443L56.3093 70.5964C56.4939 70.533 56.6456 70.3988 56.7313 70.2233C56.8168 70.0479 56.8293 69.8456 56.7658 69.6612C56.5078 68.9115 56.5047 68.1192 56.7567 67.3697C56.886 66.9852 56.6798 66.5685 56.2956 66.4382L55.8681 66.2932C56.3189 65.4182 57.0233 64.7094 57.8961 64.2525L58.0435 64.6806C58.107 64.8651 58.2414 65.0169 58.4169 65.1024C58.5923 65.1878 58.7946 65.2002 58.9791 65.1365C59.7277 64.8783 60.5194 64.8746 61.2686 65.1254C61.6517 65.254 62.0669 65.0491 62.1983 64.6669L62.3462 64.2366C63.2216 64.6869 63.931 65.391 64.3885 66.2635L63.9605 66.4112C63.776 66.4748 63.6243 66.6093 63.5388 66.7848C63.4535 66.9603 63.4413 67.1626 63.505 67.347C63.7637 68.0954 63.7679 68.8872 63.5174 69.6365C63.3894 70.0192 63.5935 70.4334 63.9747 70.5652L64.4063 70.7145C63.9547 71.5933 63.2477 72.3046 62.3713 72.7622L62.2244 72.334C62.161 72.1493 62.0269 71.9975 61.8516 71.9117C61.6759 71.826 61.4737 71.8135 61.2893 71.877C60.5402 72.1343 59.7484 72.1374 58.9995 71.8855Z" fill="#222222"/>
<path d="M69.2251 68.5259C69.2251 63.4899 65.128 59.3928 60.092 59.3928C55.0561 59.3928 50.959 63.4899 50.959 68.5259C50.959 73.5619 55.0561 77.6589 60.092 77.6589C65.128 77.6589 69.2251 73.5619 69.2251 68.5259ZM52.4306 68.5259C52.4306 64.3014 55.8675 60.8645 60.092 60.8645C64.3166 60.8645 67.7535 64.3014 67.7535 68.5259C67.7535 72.7504 64.3166 76.1873 60.092 76.1873C55.8675 76.1873 52.4306 72.7504 52.4306 68.5259Z" fill="#222222"/>
</g>
<defs>
<linearGradient id="paint0_linear" x1="151" y1="40.1667" x2="-19.5667" y2="40.1667" gradientUnits="userSpaceOnUse">
<stop offset="0.53125" stop-color="#E96524"/>
<stop offset="0.53135" stop-color="#E96524" stop-opacity="0"/>
</linearGradient>
<clipPath id="clip0">
<rect width="50" height="50" fill="white" transform="translate(35 41)"/>
</clipPath>
</defs>
</svg>
