<svg width="124" height="130" viewBox="0 0 124 130" fill="none" xmlns="http://www.w3.org/2000/svg">
<circle cx="62" cy="66" r="59.5" stroke="#E96524" stroke-opacity="0.3"/>
<mask id="mask0" mask-type="alpha" maskUnits="userSpaceOnUse" x="62" y="4" width="62" height="126">
<rect x="62" y="4" width="62" height="126" fill="#C4C4C4"/>
</mask>
<g mask="url(#mask0)">
<circle cx="62" cy="66" r="59.5" stroke="url(#paint0_linear)" stroke-width="5"/>
</g>
<mask id="mask1" mask-type="alpha" maskUnits="userSpaceOnUse" x="1" y="0" width="62" height="128">
<rect x="63" y="128" width="62" height="128" transform="rotate(-180 63 128)" fill="#C4C4C4"/>
</mask>
<g mask="url(#mask1)">
<circle cx="63" cy="66" r="59.5" transform="rotate(-180 63 66)" stroke="url(#paint1_linear)" stroke-width="5"/>
</g>
<path d="M7.40559 12.848C7.91893 13.0813 8.31093 13.3987 8.58159 13.8C8.86159 14.192 9.00159 14.654 9.00159 15.186C9.00159 15.7833 8.83359 16.306 8.49759 16.754C8.17093 17.202 7.70426 17.5473 7.09759 17.79C6.49093 18.0233 5.78626 18.14 4.98359 18.14C4.18093 18.14 3.47626 18.0233 2.86959 17.79C2.27226 17.5473 1.81026 17.202 1.48359 16.754C1.15693 16.306 0.993594 15.7833 0.993594 15.186C0.993594 14.654 1.12893 14.192 1.39959 13.8C1.67026 13.3987 2.05759 13.0813 2.56159 12.848C2.16959 12.6333 1.86626 12.3533 1.65159 12.008C1.44626 11.6533 1.34359 11.2473 1.34359 10.79C1.34359 10.2393 1.49293 9.75867 1.79159 9.348C2.09959 8.93733 2.52893 8.62 3.07959 8.396C3.63026 8.172 4.26493 8.06 4.98359 8.06C5.71159 8.06 6.35093 8.172 6.90159 8.396C7.45226 8.62 7.88159 8.93733 8.18959 9.348C8.49759 9.75867 8.65159 10.2393 8.65159 10.79C8.65159 11.2473 8.54426 11.6487 8.32959 11.994C8.11493 12.3393 7.80693 12.624 7.40559 12.848ZM4.98359 9.488C4.41426 9.488 3.96159 9.60933 3.62559 9.852C3.29893 10.0947 3.13559 10.4353 3.13559 10.874C3.13559 11.294 3.29893 11.63 3.62559 11.882C3.96159 12.1247 4.41426 12.246 4.98359 12.246C5.56226 12.246 6.01959 12.1247 6.35559 11.882C6.69159 11.63 6.85959 11.294 6.85959 10.874C6.85959 10.4353 6.68693 10.0947 6.34159 9.852C6.00559 9.60933 5.55293 9.488 4.98359 9.488ZM4.98359 16.712C5.65559 16.712 6.18759 16.572 6.57959 16.292C6.97159 16.012 7.16759 15.6247 7.16759 15.13C7.16759 14.6447 6.97159 14.262 6.57959 13.982C6.18759 13.702 5.65559 13.562 4.98359 13.562C4.31159 13.562 3.78426 13.702 3.40159 13.982C3.01893 14.262 2.82759 14.6447 2.82759 15.13C2.82759 15.6247 3.01893 16.012 3.40159 16.292C3.78426 16.572 4.31159 16.712 4.98359 16.712Z" fill="#222222"/>
<path d="M77.4785 60.4107H74.3306L75.2791 49.5211C75.2808 49.5014 75.2811 49.482 75.2812 49.4626C75.2812 49.4609 75.2814 49.4593 75.2814 49.4577C75.2814 49.4574 75.2814 49.4572 75.2814 49.4569C75.2814 49.1605 75.1026 48.8993 74.8398 48.7857C74.8376 48.7847 74.8354 48.7835 74.8332 48.7826C74.8168 48.7757 74.8 48.7699 74.783 48.7642C74.7766 48.7622 74.7706 48.7596 74.7642 48.7577C74.7503 48.7535 74.7361 48.7501 74.7219 48.7467C74.712 48.7444 74.7024 48.7416 74.6923 48.7396C74.6799 48.7372 74.667 48.7356 74.6544 48.7337C74.6424 48.732 74.6307 48.7299 74.6187 48.7289C74.6167 48.7287 74.6148 48.7283 74.6127 48.7281C74.5999 48.7269 74.5872 48.7271 74.5744 48.7266C74.5658 48.7263 74.5574 48.7253 74.5488 48.7253H74.5396C74.5388 48.7253 74.538 48.7253 74.5374 48.7253H59.5597C59.1554 48.7253 58.8272 49.0535 58.8272 49.4578C58.8272 49.8611 59.1554 50.1902 59.5597 50.1902H73.7504L72.2928 66.9261C72.2926 66.9274 72.2926 66.9286 72.2924 66.9299L71.9247 71.1527H46.4745L46.9001 66.7583H51.746C52.1505 66.7583 52.4784 66.4304 52.4784 66.0259C52.4784 65.6214 52.1505 65.2935 51.746 65.2935H47.0421L47.941 56.0166H55.6534C56.058 56.0166 56.3858 55.6887 56.3858 55.2842C56.3858 54.8797 56.058 54.5517 55.6534 54.5517H48.083L48.5056 50.1902H56.63C57.0333 50.1902 57.3624 49.8611 57.3624 49.4578C57.3624 49.0535 57.0333 48.7253 56.63 48.7253H47.8409C47.8405 48.7253 47.8402 48.7254 47.8398 48.7254C47.4957 48.7253 47.1973 48.9675 47.1251 49.3033C47.1246 49.3057 47.1238 49.3081 47.1233 49.3105C47.1196 49.3288 47.1171 49.3474 47.1147 49.3662C47.114 49.3721 47.1127 49.3778 47.1121 49.3837C47.1121 49.3849 47.1118 49.386 47.1117 49.3872L46.6113 54.5517H37.7324C37.3278 54.5517 37 54.8797 37 55.2842C37 55.6887 37.3278 56.0166 37.7324 56.0166H46.4693L45.5704 65.2935H42.9573C42.5527 65.2935 42.2248 65.6214 42.2248 66.0259C42.2248 66.4304 42.5527 66.7583 42.9573 66.7583H45.4285L44.9391 71.8092C44.939 71.81 44.939 71.8108 44.9389 71.8115L44.1822 79.6219C44.1821 79.6228 44.182 79.6238 44.1819 79.6246L44.1816 79.6274C44.1806 79.6376 44.1807 79.6475 44.1801 79.6577C44.1794 79.6712 44.1781 79.6843 44.1781 79.698C44.1781 79.6986 44.1782 79.6992 44.1782 79.6999C44.1782 79.7187 44.1795 79.7373 44.1809 79.7558C44.1815 79.7618 44.1813 79.7678 44.182 79.7737C44.1839 79.7926 44.1871 79.8113 44.1906 79.8299C44.1915 79.8353 44.192 79.8409 44.1931 79.8463C44.1959 79.8603 44.1999 79.8739 44.2036 79.8877C44.2062 79.8973 44.2082 79.9072 44.2112 79.9167C44.212 79.9193 44.2132 79.9219 44.214 79.9246C44.2494 80.0336 44.3096 80.1314 44.3881 80.2113C44.3896 80.2128 44.3908 80.2144 44.3922 80.2158C44.4 80.2236 44.4085 80.2306 44.4167 80.2381C44.4672 80.2844 44.5242 80.3236 44.5867 80.3544C44.5996 80.3608 44.6124 80.3676 44.6257 80.3731C44.6297 80.3749 44.634 80.376 44.6381 80.3776C44.6565 80.3849 44.6749 80.392 44.694 80.3979C44.6957 80.3984 44.6974 80.3987 44.6992 80.3993C44.7208 80.4057 44.7427 80.4114 44.7651 80.416C44.768 80.4166 44.771 80.4168 44.7739 80.4174C44.7951 80.4214 44.8165 80.4248 44.8383 80.4269C44.8388 80.4269 44.8392 80.427 44.8397 80.4271C44.8637 80.4295 44.8875 80.4306 44.9112 80.4306C44.9115 80.4306 44.9118 80.4305 44.9122 80.4305H48.1728C48.5329 83.1603 50.8732 85.2746 53.6999 85.2746C56.5263 85.2746 58.8667 83.1603 59.2267 80.4305H70.9747C71.3349 83.1603 73.6751 85.2746 76.5017 85.2746C79.3282 85.2746 81.6687 83.1603 82.0289 80.4305H85.2902C85.2907 80.4305 85.2913 80.4306 85.2918 80.4306C85.3162 80.4306 85.3402 80.4292 85.3641 80.4268C85.3684 80.4264 85.3725 80.4256 85.3768 80.4251C85.3958 80.4228 85.4147 80.4202 85.4333 80.4165C85.4413 80.4149 85.449 80.4128 85.4569 80.4109C85.4713 80.4076 85.4857 80.4041 85.4998 80.3999C85.5094 80.397 85.5187 80.3937 85.528 80.3905C85.54 80.3864 85.552 80.3821 85.5639 80.3773C85.574 80.3733 85.5837 80.3689 85.5936 80.3645C85.6043 80.3595 85.615 80.3545 85.6255 80.3491C85.6354 80.344 85.645 80.3387 85.6546 80.3333C85.6646 80.3274 85.6746 80.3214 85.6845 80.3151C85.6936 80.3093 85.7028 80.3033 85.7116 80.297C85.7216 80.2901 85.7311 80.2828 85.7407 80.2754C85.7487 80.269 85.7568 80.2628 85.7646 80.2561C85.7747 80.2476 85.7842 80.2387 85.7937 80.2297C85.8004 80.2233 85.8073 80.2171 85.8138 80.2104C85.8239 80.2001 85.8336 80.1891 85.8433 80.1781C85.8484 80.1721 85.8538 80.1664 85.8588 80.1603C85.8695 80.147 85.8793 80.1334 85.8891 80.1196C85.8924 80.1148 85.8961 80.1103 85.8993 80.1054C85.9112 80.0876 85.9225 80.0692 85.9328 80.0503C85.9336 80.0491 85.9344 80.048 85.9349 80.0468C85.9459 80.0264 85.9561 80.0056 85.9651 79.9842C85.9677 79.978 85.9696 79.9717 85.9721 79.9655C85.978 79.9504 85.9839 79.9352 85.9889 79.9195C85.9921 79.9093 85.9944 79.8989 85.9973 79.8886C86.0005 79.8764 86.0039 79.8643 86.0066 79.8519C86.0091 79.8409 86.0106 79.8296 86.0125 79.8183C86.0142 79.8085 86.0163 79.7988 86.0176 79.7887C86.0486 79.5399 86.6222 74.9384 86.8783 71.963C86.8786 71.9602 86.8787 71.9573 86.879 71.9544C86.9527 71.0967 87 70.3744 87 69.9323C87 64.6821 82.7287 60.4107 77.4785 60.4107ZM74.203 61.8758H77.1994L76.8167 66.2699H73.8203L74.203 61.8758ZM53.7001 83.8097C51.4328 83.8097 49.5882 81.9651 49.5882 79.6979C49.5882 77.4307 51.4329 75.5862 53.7001 75.5862C55.9673 75.5862 57.8118 77.4307 57.8118 79.6979C57.8118 81.9651 55.9673 83.8097 53.7001 83.8097ZM76.5017 83.8097C74.2345 83.8097 72.3901 81.9651 72.3901 79.6979C72.3901 77.4307 74.2346 75.5862 76.5017 75.5862C78.769 75.5862 80.6136 77.4307 80.6136 79.6979C80.6136 81.9651 78.769 83.8097 76.5017 83.8097ZM84.6431 78.9652H82.0291C81.6691 76.2352 79.3287 74.1208 76.5019 74.1208C73.6753 74.1208 71.3349 76.2353 70.9749 78.9652H59.227C58.8671 76.2352 56.5267 74.1208 53.7001 74.1208C50.8734 74.1208 48.5329 76.2353 48.1729 78.9652H45.7174L46.3326 72.6171H72.5958V72.6175C72.5962 72.6175 72.5965 72.6175 72.5969 72.6175C72.6214 72.6175 72.6457 72.6162 72.6698 72.6137C72.6743 72.6133 72.6787 72.6124 72.6832 72.6118C72.7023 72.6095 72.7213 72.6068 72.7401 72.6031C72.7482 72.6014 72.7561 72.5992 72.7641 72.5972C72.7788 72.5937 72.7934 72.5903 72.8077 72.586C72.8174 72.5831 72.8267 72.5795 72.8362 72.5762C72.8485 72.5719 72.8608 72.5677 72.8727 72.5628C72.883 72.5586 72.8928 72.5539 72.9028 72.5493C72.9136 72.5443 72.9245 72.5393 72.9349 72.5338C72.9449 72.5286 72.9546 72.5229 72.9645 72.5172C72.9746 72.5114 72.9845 72.5054 72.9943 72.4992C73.0038 72.493 73.0127 72.4866 73.0218 72.4801C73.0315 72.4733 73.0409 72.4663 73.0502 72.4589C73.0586 72.4522 73.0669 72.4453 73.0751 72.4381C73.0844 72.4301 73.0935 72.4219 73.1023 72.4134C73.1097 72.4063 73.1171 72.399 73.1244 72.3914C73.1331 72.3823 73.1416 72.3728 73.15 72.3631C73.1566 72.3555 73.163 72.3479 73.1693 72.3401C73.1774 72.3298 73.1851 72.3193 73.1927 72.3086C73.1985 72.3006 73.204 72.2926 73.2095 72.2844C73.2166 72.2734 73.2235 72.2621 73.23 72.2505C73.235 72.2419 73.2401 72.2333 73.2446 72.2246C73.2507 72.213 73.256 72.2013 73.2616 72.1895C73.2659 72.18 73.2703 72.1707 73.2742 72.161C73.279 72.1495 73.283 72.1376 73.2872 72.1258C73.2908 72.1154 73.2946 72.1049 73.2978 72.0942C73.301 72.0829 73.3037 72.0712 73.3066 72.0597C73.3094 72.0481 73.3125 72.0366 73.3148 72.0247C73.317 72.0132 73.3184 72.0015 73.3202 71.9898C73.3219 71.9777 73.324 71.9658 73.3251 71.9535C73.3253 71.9517 73.3257 71.95 73.3258 71.9483L73.6929 67.7344H77.4783C79.7223 67.7344 80.7345 68.8971 81.8058 70.1282C82.6899 71.1439 83.6769 72.2772 85.3547 72.5537C85.1416 74.8066 84.7972 77.6988 84.6431 78.9652ZM85.4799 71.0859C84.3915 70.864 83.7219 70.0989 82.9106 69.1668C81.8961 68.0013 80.6575 66.5789 78.2832 66.3139L78.6621 61.9635C82.5453 62.5378 85.5352 65.8921 85.5352 69.9325C85.5352 70.207 85.5146 70.6058 85.4799 71.0859Z" fill="black"/>
<path d="M53.7002 77.0122C52.2194 77.0122 51.0146 78.2169 51.0146 79.6978C51.0146 81.1786 52.2194 82.3833 53.7002 82.3833C55.181 82.3833 56.3858 81.1786 56.3858 79.6978C56.3858 78.217 55.181 77.0122 53.7002 77.0122ZM53.7002 80.9185C53.0271 80.9185 52.4795 80.3709 52.4795 79.6978C52.4795 79.0246 53.0271 78.4771 53.7002 78.4771C54.3734 78.4771 54.9209 79.0246 54.9209 79.6978C54.9209 80.3709 54.3733 80.9185 53.7002 80.9185Z" fill="black"/>
<path d="M76.5015 77.0122C75.0207 77.0122 73.8159 78.2169 73.8159 79.6978C73.8159 81.1786 75.0207 82.3833 76.5015 82.3833C77.9822 82.3833 79.187 81.1786 79.187 79.6978C79.187 78.217 77.9822 77.0122 76.5015 77.0122ZM76.5015 80.9185C75.8283 80.9185 75.2808 80.3709 75.2808 79.6978C75.2808 79.0246 75.8283 78.4771 76.5015 78.4771C77.1746 78.4771 77.7222 79.0246 77.7222 79.6978C77.7222 80.3709 77.1746 80.9185 76.5015 80.9185Z" fill="black"/>
<path d="M43.9337 60.4109H40.353C39.9484 60.4109 39.6206 60.7388 39.6206 61.1433C39.6206 61.5478 39.9484 61.8757 40.353 61.8757H43.9337C44.3383 61.8757 44.6661 61.5478 44.6661 61.1433C44.6661 60.7388 44.3383 60.4109 43.9337 60.4109Z" fill="black"/>
<defs>
<linearGradient id="paint0_linear" x1="153" y1="40.1667" x2="-17.5667" y2="40.1667" gradientUnits="userSpaceOnUse">
<stop offset="0.53125" stop-color="#E96524"/>
<stop offset="0.53135" stop-color="#E96524" stop-opacity="0"/>
</linearGradient>
<linearGradient id="paint1_linear" x1="154" y1="40.1667" x2="-16.5667" y2="40.1667" gradientUnits="userSpaceOnUse">
<stop offset="0.53125" stop-color="#E96524"/>
<stop offset="0.53135" stop-color="#E96524" stop-opacity="0"/>
</linearGradient>
</defs>
</svg>
