<svg width="123" height="126" viewBox="0 0 123 126" fill="none" xmlns="http://www.w3.org/2000/svg">
<circle cx="61" cy="66" r="59.5" stroke="#E96524" stroke-opacity="0.3"/>
<mask id="mask0" mask-type="alpha" maskUnits="userSpaceOnUse" x="61" y="4" width="62" height="98">
<rect x="61" y="4" width="62" height="98" fill="#C4C4C4"/>
</mask>
<g mask="url(#mask0)">
<circle cx="61" cy="66" r="59.5" stroke="url(#paint0_linear)" stroke-width="5"/>
</g>
<path d="M5.21378 12.246C6.11911 12.358 6.80978 12.666 7.28578 13.17C7.76178 13.674 7.99978 14.304 7.99978 15.06C7.99978 15.6293 7.85511 16.1473 7.56578 16.614C7.27645 17.0807 6.83778 17.454 6.24978 17.734C5.67111 18.0047 4.96178 18.14 4.12178 18.14C3.42178 18.14 2.74511 18.042 2.09178 17.846C1.44778 17.6407 0.897115 17.3607 0.439781 17.006L1.22378 15.592C1.57845 15.8907 2.00778 16.1287 2.51178 16.306C3.02511 16.474 3.55245 16.558 4.09378 16.558C4.73778 16.558 5.24178 16.4273 5.60578 16.166C5.97911 15.8953 6.16578 15.5313 6.16578 15.074C6.16578 14.6167 5.98845 14.262 5.63378 14.01C5.28845 13.7487 4.75645 13.618 4.03778 13.618H3.14178V12.372L5.36778 9.726H0.915781V8.2H7.59378V9.418L5.21378 12.246Z" fill="#222222"/>
<g clip-path="url(#clip0)">
<path d="M80.9207 56.9253C82.9308 56.9253 84.5661 55.2899 84.5661 53.2798C84.5661 52.5375 84.3383 51.8148 83.9199 51.2087C84.327 50.6205 84.5661 49.9078 84.5661 49.14C84.5661 47.1299 82.9308 45.4945 80.9207 45.4945H78.746V43.6222C78.746 41.6249 77.1211 40 75.1238 40H49.7609C47.7636 40 46.1387 41.6249 46.1387 43.6222V67.7149C41.157 68.8737 37.4341 73.3497 37.4341 78.679C37.4341 84.8855 42.4835 89.9349 48.6899 89.9349C53.0485 89.9349 56.8363 87.4445 58.7055 83.8121H59.9277C60.3339 83.8121 60.6631 83.4829 60.6631 83.0767C60.6631 82.6706 60.3339 82.3413 59.9277 82.3413H59.3335C59.7299 81.1926 59.9457 79.9607 59.9457 78.679C59.9457 73.5269 56.4659 69.1724 51.7334 67.8415V41.4708H75.1238C76.3101 41.4708 77.2752 42.436 77.2752 43.6222V80.1899C77.2752 81.3762 76.3101 82.3413 75.1238 82.3413H62.8693C62.4632 82.3413 62.1339 82.6706 62.1339 83.0767C62.1339 83.4829 62.4632 83.8121 62.8693 83.8121H67.0085V88.7893C67.0085 89.2082 67.2204 89.5912 67.5751 89.8139C67.772 89.9374 67.9941 89.9998 68.2173 89.9998C68.3964 89.9998 68.5763 89.9596 68.7442 89.8784L70.5859 88.9889L72.4275 89.8784C72.8048 90.0607 73.242 90.0365 73.5966 89.8138C73.9515 89.5911 74.1633 89.2081 74.1633 88.7892V83.812H75.1238C77.1211 83.812 78.746 82.1871 78.746 80.1898V68.7133H80.9207C82.9308 68.7133 84.5661 67.078 84.5661 65.0679C84.5661 63.0578 82.9308 61.4224 80.9207 61.4224H78.746V56.9253H80.9207ZM58.4749 78.6791C58.4749 84.0746 54.0853 88.4642 48.6899 88.4642C43.2945 88.4642 38.9049 84.0746 38.9049 78.6791C38.9049 73.2836 43.2945 68.894 48.6899 68.894C54.0853 68.894 58.4749 73.2836 58.4749 78.6791ZM50.2626 67.5336C49.7485 67.4614 49.2236 67.4232 48.6898 67.4232C48.3253 67.4232 47.9651 67.4412 47.6094 67.4753V43.6222C47.6094 42.436 48.5746 41.4708 49.7608 41.4708H50.2625V67.5336H50.2626ZM72.6925 88.3732L71.1119 87.6097C70.7776 87.4483 70.3942 87.4482 70.0597 87.6097L68.4793 88.3732V83.8121H72.6925V88.3732ZM80.9207 55.4545H78.746V52.7854H80.9207C81.6205 52.7854 82.2746 52.5868 82.8305 52.2435C83.002 52.5597 83.0953 52.9154 83.0953 53.2798C83.0953 54.4789 82.1198 55.4545 80.9207 55.4545ZM80.9207 46.9654C82.1198 46.9654 83.0953 47.941 83.0953 49.1401C83.0953 50.3392 82.1198 51.3147 80.9207 51.3147H78.746V46.9654H80.9207ZM80.9207 62.8932C82.1198 62.8932 83.0953 63.8688 83.0953 65.0679C83.0953 66.267 82.1198 67.2425 80.9207 67.2425H78.746V62.8933H80.9207V62.8932Z" fill="#222222"/>
<path d="M55.6094 50.8673H60.2669C60.673 50.8673 61.0023 50.538 61.0023 50.1319C61.0023 49.7257 60.673 49.3965 60.2669 49.3965H55.6094C54.6595 49.3965 53.8867 50.1693 53.8867 51.1192V57.6756C53.8867 58.6255 54.6595 59.3983 55.6094 59.3983H70.1293C71.0793 59.3983 71.852 58.6254 71.852 57.6756V51.1192C71.852 50.1692 71.0793 49.3965 70.1293 49.3965H63.2085C62.8024 49.3965 62.4731 49.7257 62.4731 50.1319C62.4731 50.538 62.8024 50.8673 63.2085 50.8673H70.1293C70.2683 50.8673 70.3812 50.9803 70.3812 51.1192V57.6756C70.3812 57.8145 70.2682 57.9275 70.1293 57.9275H55.6094C55.4705 57.9275 55.3575 57.8144 55.3575 57.6756V51.1192C55.3575 50.9803 55.4706 50.8673 55.6094 50.8673Z" fill="#222222"/>
<path d="M45.5787 77.4292C44.9642 79.1484 45.8628 81.0471 47.5822 81.6617C47.9456 81.7917 48.3216 81.8562 48.6968 81.8562C49.1804 81.8562 49.6623 81.7488 50.113 81.5354C50.9132 81.1567 51.5176 80.49 51.8149 79.6582C52.1122 78.8264 52.0674 77.9277 51.6887 77.1274C51.3099 76.3273 50.6432 75.7229 49.8113 75.4255C48.092 74.8111 46.1934 75.7099 45.5787 77.4292ZM46.9637 77.9242C47.3052 76.9687 48.3605 76.469 49.3163 76.8106C49.7781 76.9758 50.1486 77.3118 50.3592 77.7568C50.5698 78.2017 50.5949 78.7013 50.4298 79.1631C50.2647 79.625 49.9287 79.9954 49.4837 80.206C49.0386 80.4168 48.5392 80.4418 48.0773 80.2767C47.1216 79.9352 46.6221 78.8798 46.9637 77.9242Z" fill="#222222"/>
<path d="M47.5044 72.4672C47.3998 72.1443 47.1631 71.8772 46.8551 71.7343C46.5495 71.5926 46.1962 71.5844 45.8858 71.7118C44.1254 72.4335 42.7294 73.787 41.9548 75.5231C41.8175 75.8308 41.8148 76.1855 41.9471 76.4961C42.08 76.8079 42.3392 77.0526 42.658 77.1672L42.9378 77.2678C42.763 78.0503 42.7513 78.8526 42.9033 79.6407L42.6196 79.7325C42.2972 79.8367 42.0304 80.0727 41.8874 80.38C41.745 80.6861 41.7362 81.0407 41.8634 81.3527C42.5896 83.1347 43.9351 84.5436 45.6521 85.3195C45.9644 85.4607 46.324 85.465 46.6385 85.3313C46.9509 85.1986 47.1955 84.9391 47.3095 84.6195L47.4225 84.3031C48.2033 84.4773 49.0038 84.489 49.7904 84.3379L49.882 84.6216C49.9862 84.9446 50.2226 85.212 50.5304 85.3552C50.6923 85.4305 50.8676 85.4682 51.0429 85.4682C51.1983 85.4682 51.3537 85.4385 51.4998 85.3789C53.2652 84.6575 54.6644 83.3017 55.4399 81.5613C55.5765 81.2548 55.5798 80.9014 55.4488 80.5917C55.3174 80.281 55.0603 80.0361 54.7436 79.9201L54.4567 79.8148C54.6309 79.0316 54.6419 78.2286 54.4889 77.4401L54.7719 77.3482C55.0947 77.2434 55.3615 77.0067 55.504 76.6986C55.6459 76.3918 55.6537 76.0368 55.5253 75.7249C54.8026 73.9676 53.4495 72.5741 51.7154 71.801C51.4086 71.6642 51.0548 71.6611 50.7447 71.7926C50.4336 71.9246 50.1889 72.1822 50.0732 72.4996L49.9694 72.7843C49.1869 72.61 48.3843 72.5987 47.5964 72.751L47.5044 72.4672ZM50.1795 74.3727C50.5598 74.5079 50.9786 74.311 51.1168 73.9314L51.3614 73.2602C52.5503 73.8563 53.4937 74.8276 54.0556 76.0344L53.3778 76.2544C53.1922 76.3147 53.0382 76.4462 52.9496 76.6201C52.861 76.7939 52.8451 76.9958 52.9054 77.1813C53.2095 78.1164 53.1968 79.0993 52.8686 80.0241C52.7338 80.404 52.93 80.8218 53.3085 80.9605L53.9809 81.2069C53.3834 82.3999 52.4084 83.3454 51.1968 83.9069L50.9778 83.2287C50.9179 83.043 50.7866 82.8888 50.6129 82.7999C50.5082 82.7464 50.3934 82.7192 50.2779 82.7192C50.2018 82.7192 50.1254 82.731 50.0517 82.7549C49.116 83.0573 48.133 83.043 47.2088 82.7132C46.8268 82.5768 46.406 82.7759 46.2693 83.1581L46.0174 83.8639C44.8387 83.2645 43.8986 82.278 43.3334 81.0474L44.0129 80.8275C44.1986 80.7674 44.3527 80.6361 44.4414 80.4624C44.5302 80.2886 44.5463 80.0867 44.4862 79.9012C44.183 78.9648 44.1971 77.9809 44.5271 77.056C44.6633 76.6742 44.4649 76.2541 44.0834 76.1168L43.4145 75.8762C44.0112 74.6874 44.9832 73.7446 46.1903 73.1834L46.4101 73.8614C46.4702 74.047 46.6017 74.2011 46.7754 74.2897C46.9492 74.3784 47.1513 74.3943 47.3367 74.3341C48.2721 74.0307 49.255 74.044 50.1795 74.3727Z" fill="#222222"/>
<path d="M54.6221 62.5143H71.1166C71.5228 62.5143 71.852 62.185 71.852 61.7789C71.852 61.3727 71.5228 61.0435 71.1166 61.0435H54.6221C54.216 61.0435 53.8867 61.3727 53.8867 61.7789C53.8867 62.185 54.216 62.5143 54.6221 62.5143Z" fill="#222222"/>
<path d="M54.6221 65.63H71.1166C71.5228 65.63 71.852 65.3007 71.852 64.8946C71.852 64.4884 71.5228 64.1592 71.1166 64.1592H54.6221C54.216 64.1592 53.8867 64.4884 53.8867 64.8946C53.8867 65.3007 54.216 65.63 54.6221 65.63Z" fill="#222222"/>
<path d="M71.1167 68.7132C71.5228 68.7132 71.8521 68.384 71.8521 67.9778C71.8521 67.5717 71.5228 67.2424 71.1167 67.2424H62.4424C62.0363 67.2424 61.707 67.5717 61.707 67.9778C61.707 68.384 62.0363 68.7132 62.4424 68.7132H71.1167Z" fill="#222222"/>
</g>
<defs>
<linearGradient id="paint0_linear" x1="152" y1="40.1667" x2="-18.5667" y2="40.1667" gradientUnits="userSpaceOnUse">
<stop offset="0.53125" stop-color="#E96524"/>
<stop offset="0.53135" stop-color="#E96524" stop-opacity="0"/>
</linearGradient>
<clipPath id="clip0">
<rect width="50" height="50" fill="white" transform="translate(36 40)"/>
</clipPath>
</defs>
</svg>
