<svg width="123" height="130" viewBox="0 0 123 130" fill="none" xmlns="http://www.w3.org/2000/svg">
<circle cx="61" cy="66" r="59.5" stroke="#E96524" stroke-opacity="0.3"/>
<mask id="mask0" mask-type="alpha" maskUnits="userSpaceOnUse" x="61" y="4" width="62" height="126">
<rect x="61" y="4" width="62" height="126" fill="#C4C4C4"/>
</mask>
<g mask="url(#mask0)">
<circle cx="61" cy="66" r="59.5" stroke="url(#paint0_linear)" stroke-width="5"/>
</g>
<mask id="mask1" mask-type="alpha" maskUnits="userSpaceOnUse" x="0" y="92" width="62" height="36">
<rect x="62" y="128" width="62" height="36" transform="rotate(-180 62 128)" fill="#C4C4C4"/>
</mask>
<g mask="url(#mask1)">
<circle cx="62" cy="66" r="59.5" transform="rotate(-180 62 66)" stroke="url(#paint1_linear)" stroke-width="5"/>
</g>
<path d="M4.09411 11.994C5.47544 11.994 6.49744 12.2647 7.16011 12.806C7.82278 13.338 8.15411 14.066 8.15411 14.99C8.15411 15.578 8.00944 16.11 7.72011 16.586C7.43078 17.062 6.99678 17.44 6.41811 17.72C5.83944 18 5.12544 18.14 4.27611 18.14C3.57611 18.14 2.89944 18.042 2.24611 17.846C1.59278 17.6407 1.04211 17.3607 0.594109 17.006L1.36411 15.592C1.72811 15.8907 2.16211 16.1287 2.66611 16.306C3.17944 16.474 3.70678 16.558 4.24811 16.558C4.89211 16.558 5.39611 16.4273 5.76011 16.166C6.13344 15.8953 6.32011 15.5267 6.32011 15.06C6.32011 14.556 6.11944 14.178 5.71811 13.926C5.32611 13.6647 4.64944 13.534 3.68811 13.534H1.32211L1.82611 8.2H7.58011V9.726H3.36611L3.15611 11.994H4.09411Z" fill="#222222"/>
<g clip-path="url(#clip0)">
<path d="M78.3333 81.3798C78.0283 81.1145 77.5658 81.1464 77.3005 81.4514L75.6099 83.394L75.1032 82.7646C74.8495 82.4495 74.3887 82.3998 74.0738 82.6532C73.7588 82.9068 73.7092 83.3677 73.9626 83.6826L75.0177 84.9934C75.3034 85.3482 75.8409 85.3587 76.1402 85.015L78.4051 82.4126C78.6704 82.1076 78.6383 81.6451 78.3333 81.3798Z" fill="#222222"/>
<path d="M69.2444 53.5359H55.5544C55.15 53.5359 54.8223 53.8637 54.8223 54.268C54.8223 54.6723 55.15 55.0001 55.5544 55.0001H69.2444C69.6488 55.0001 69.9766 54.6723 69.9766 54.268C69.9766 53.8637 69.6488 53.5359 69.2444 53.5359Z" fill="#222222"/>
<path d="M69.2444 57.0496H55.5544C55.15 57.0496 54.8223 57.3774 54.8223 57.7817C54.8223 58.186 55.15 58.5138 55.5544 58.5138H69.2444C69.6488 58.5138 69.9766 58.186 69.9766 57.7817C69.9766 57.3774 69.6488 57.0496 69.2444 57.0496Z" fill="#222222"/>
<path d="M69.2444 64.0776H55.5544C55.15 64.0776 54.8223 64.4055 54.8223 64.8098C54.8223 65.2142 55.15 65.5419 55.5544 65.5419H69.2444C69.6488 65.5419 69.9766 65.2142 69.9766 64.8098C69.9766 64.4054 69.6488 64.0776 69.2444 64.0776Z" fill="#222222"/>
<path d="M69.2444 60.5635H55.5544C55.15 60.5635 54.8223 60.8913 54.8223 61.2956C54.8223 61.6999 55.15 62.0277 55.5544 62.0277H69.2444C69.6488 62.0277 69.9766 61.6999 69.9766 61.2956C69.9766 60.8912 69.6488 60.5635 69.2444 60.5635Z" fill="#222222"/>
<path d="M69.2444 67.5916H55.5544C55.15 67.5916 54.8223 67.9193 54.8223 68.3237C54.8223 68.7281 55.15 69.0558 55.5544 69.0558H69.2444C69.6488 69.0558 69.9766 68.7281 69.9766 68.3237C69.9766 67.9193 69.6488 67.5916 69.2444 67.5916Z" fill="#222222"/>
<path d="M69.2444 74.6194H55.5544C55.15 74.6194 54.8223 74.9472 54.8223 75.3515C54.8223 75.7559 55.15 76.0836 55.5544 76.0836H69.2444C69.6488 76.0836 69.9766 75.7559 69.9766 75.3515C69.9766 74.9471 69.6488 74.6194 69.2444 74.6194Z" fill="#222222"/>
<path d="M69.2444 71.1055H55.5544C55.15 71.1055 54.8223 71.4332 54.8223 71.8376C54.8223 72.242 55.15 72.5697 55.5544 72.5697H69.2444C69.6488 72.5697 69.9766 72.242 69.9766 71.8376C69.9766 71.4332 69.6488 71.1055 69.2444 71.1055Z" fill="#222222"/>
<path d="M52.6704 53.5502C52.4136 53.4994 52.1626 53.5938 52.0105 53.7503C51.8494 53.9115 51.7615 54.1494 51.8094 54.4111C51.8514 54.6135 51.9677 54.7742 52.1219 54.8767C52.4055 55.0684 52.7981 55.033 53.0454 54.7859C53.1855 54.6456 53.26 54.4545 53.26 54.2676C53.26 53.9286 53.0262 53.6243 52.6704 53.5502Z" fill="#222222"/>
<path d="M52.934 57.1727C52.8552 57.1194 52.7595 57.081 52.6704 57.0644C52.4333 57.0149 52.1762 57.0941 52.0106 57.2645C51.852 57.422 51.7609 57.6602 51.8095 57.9253C51.8194 57.9713 51.8697 58.1151 51.9189 58.1879C52.254 58.6802 52.9906 58.5949 53.2033 58.062C53.2427 57.9691 53.26 57.8711 53.26 57.7818C53.2601 57.5511 53.1508 57.3207 52.934 57.1727Z" fill="#222222"/>
<path d="M53.2459 64.6665C53.2309 64.5859 53.192 64.4855 53.1376 64.4029C52.8663 64.006 52.3244 63.9784 52.0111 64.2915C51.9392 64.3636 51.89 64.44 51.8521 64.5296C51.8162 64.6148 51.7964 64.7096 51.7964 64.8098C51.7964 65.0021 51.8746 65.1904 52.0111 65.3272C52.0747 65.391 52.151 65.4442 52.2483 65.4854C52.3322 65.5208 52.4306 65.5421 52.5284 65.5421C52.6241 65.5421 52.7212 65.5215 52.8086 65.4854C52.9037 65.4452 52.9819 65.3909 53.0459 65.3273C53.212 65.161 53.2961 64.9133 53.2459 64.6665Z" fill="#222222"/>
<path d="M53.2039 61.0157C53.0337 60.5895 52.4979 60.4329 52.1223 60.6867C51.9631 60.7928 51.8519 60.9545 51.8099 61.1523C51.7617 61.4157 51.8512 61.6545 52.011 61.8132C52.1347 61.9406 52.3287 62.0279 52.5284 62.0279C53.0517 62.0279 53.405 61.4912 53.2039 61.0157Z" fill="#222222"/>
<path d="M53.0455 67.8057C52.6373 67.3977 51.9296 67.602 51.8097 68.1805C51.7612 68.4391 51.8491 68.6797 52.0107 68.8414C52.2942 69.1249 52.7583 69.1278 53.0455 68.8414C53.3276 68.5592 53.3347 68.0956 53.0455 67.8057Z" fill="#222222"/>
<path d="M53.1373 74.9451C52.8689 74.5524 52.3203 74.5154 52.0108 74.8337C51.7229 75.1219 51.727 75.5864 52.0108 75.8685C52.2877 76.1532 52.7669 76.1544 53.0456 75.8685C53.2924 75.6232 53.3311 75.2311 53.1373 74.9451Z" fill="#222222"/>
<path d="M53.1371 71.4309C52.7181 70.8177 51.7959 71.1349 51.7959 71.837C51.7959 72.0302 51.8741 72.2185 52.0106 72.3554C52.1396 72.4844 52.3235 72.5691 52.528 72.5691C53.1099 72.5691 53.4606 71.9215 53.1371 71.4309Z" fill="#222222"/>
<path d="M82.0454 81.8856L81.589 81.4407C81.0979 80.962 81.9676 80.1792 81.2781 79.2302C81.0546 78.9224 80.7283 78.7184 80.3555 78.6518C79.9427 78.5503 79.4627 78.6485 79.2664 78.2508C79.0427 77.8857 78.9479 77.2875 78.2627 76.9882V55.9633C78.2627 55.559 77.9349 55.2312 77.5305 55.2312C77.1261 55.2312 76.7984 55.559 76.7984 55.9633V77.132C76.4679 77.3198 76.2246 77.4831 75.9248 77.3255L75.5478 77.1273V45.5333C75.5478 44.4837 74.6939 43.6299 73.6444 43.6299H68.0744C68.1592 43.2728 68.1153 43.0967 68.1276 42.4375H74.3135C75.6838 42.4375 76.7985 43.5523 76.7985 44.9225V52.5725C76.7985 52.9768 77.1262 53.3046 77.5306 53.3046C77.935 53.3046 78.2628 52.9768 78.2628 52.5725V44.9224C78.2628 42.7448 76.4912 40.9732 74.3136 40.9732H68.1277V40.9034C68.1276 39.8539 67.2737 39 66.2242 39H60.9035C60.4992 39 60.1714 39.3278 60.1714 39.7321C60.1714 40.1364 60.4992 40.4643 60.9035 40.4643H66.2242C66.4623 40.4643 66.6634 40.6654 66.6634 40.9035C66.6634 41.6952 66.6634 42.3993 66.6634 43.1907C66.6634 43.4288 66.4623 43.63 66.2242 43.63C64.8719 43.63 56.8668 43.63 55.5355 43.63C55.2974 43.63 55.0962 43.4288 55.0962 43.1907C55.0962 42.3995 55.0962 41.6953 55.0962 40.9035C55.0962 40.6654 55.2974 40.4643 55.5355 40.4643H57.487C57.8914 40.4643 58.2192 40.1364 58.2192 39.7321C58.2192 39.3278 57.8914 39 57.487 39H55.5355C54.486 39 53.6321 39.8539 53.6321 40.9034V40.9732H47.4623C45.2848 40.9732 43.5132 42.7448 43.5132 44.9224V83.7965C43.5132 85.974 45.2848 87.7456 47.4623 87.7456H50.8197C51.2241 87.7456 51.5519 87.4179 51.5519 87.0135C51.5519 86.6091 51.2242 86.2813 50.8197 86.2813H47.4623C46.0921 86.2813 44.9773 85.1666 44.9773 83.7964V44.9224C44.9773 43.5522 46.0921 42.4374 47.4623 42.4374H53.6321C53.6443 43.0892 53.5999 43.2706 53.6853 43.6298H48.1152C47.0689 43.6298 46.2118 44.4828 46.2118 45.5332C46.2153 84.9404 46.2028 83.1706 46.2218 83.3549C46.3206 84.3204 47.1388 85.0646 48.1152 85.0646H70.9112C70.8367 85.4775 70.7281 85.8263 70.8985 86.2812H54.2362C53.8318 86.2812 53.504 86.609 53.504 87.0134C53.504 87.4178 53.8318 87.7455 54.2362 87.7455H73.1651C73.2754 87.8885 73.5403 88.9959 74.6901 88.9959C75.1529 88.9959 75.4095 88.8031 75.9249 88.5351C76.5297 88.2167 77.0135 89.2861 78.1265 88.9241C78.933 88.6622 79.0613 87.9305 79.2665 87.6098C79.5732 86.9882 80.5859 87.5833 81.2783 86.6301C81.7766 85.9441 81.4513 85.2765 81.4301 84.9094C81.3538 84.465 81.7959 84.2775 82.0799 83.94C82.6332 83.3648 82.6223 82.448 82.0454 81.8856ZM65.1602 45.0941V46.0938C65.1602 46.3958 64.9145 46.6413 64.6126 46.6413H57.1474C56.8453 46.6413 56.5998 46.3956 56.5998 46.0938V45.0941H65.1602ZM71.0153 79.3389C70.4578 80.2687 71.2557 80.9729 70.7756 81.441L70.3196 81.8856C69.816 82.3763 69.7752 83.0898 70.0408 83.6007C46.5687 83.5975 48.0428 83.6416 47.8721 83.5258C47.7524 83.4446 47.6761 83.3112 47.6761 83.1614C47.6829 44.2358 47.5564 45.339 47.9085 45.1469C48.1222 45.0307 47.938 45.1264 55.1355 45.0943V46.0939C55.1355 47.2032 56.038 48.1057 57.1473 48.1057H64.6125C65.7218 48.1057 66.6244 47.2031 66.6244 46.0939V45.0941H73.6445C73.8826 45.0941 74.0838 45.2951 74.0838 45.5333V76.9974C73.1277 77.4305 73.3325 78.4589 72.6818 78.5535C72.2295 78.6537 71.4833 78.5606 71.0153 79.3389ZM80.9596 82.9974C80.7376 83.2361 79.767 83.874 79.9868 85.157L80.097 85.7675C80.0656 85.7721 80.0344 85.7786 80.004 85.7872C79.6757 85.8504 78.5272 85.7994 77.9534 86.9619L77.678 87.5319C77.6498 87.517 77.6205 87.504 77.5905 87.493C77.5651 87.4811 77.5027 87.445 77.4566 87.4183C75.9592 86.5516 75.2827 87.2725 74.6912 87.5291C74.4501 87.2576 74.3818 86.0329 72.6474 85.8208C72.3905 85.7896 72.5679 85.8164 72.2721 85.7734C72.2774 85.7425 72.2807 85.711 72.2821 85.6797C72.3226 85.3587 72.7245 84.2748 71.7976 83.3714L71.3415 82.9341L71.7977 82.4893C72.5649 81.7414 72.4251 80.997 72.2677 80.0931L72.8921 80.0023C74.0281 79.8374 74.3512 79.0131 74.6882 78.3296L75.2434 78.6214C76.3862 79.2224 77.2966 78.5037 77.5926 78.3668C77.6204 78.3565 77.647 78.3448 77.6733 78.3311L77.9535 78.8986C78.4628 79.9306 79.3576 79.9803 80.0927 80.087C80.0873 80.1181 80.084 80.1497 80.0826 80.1812C80.0792 80.2084 80.0645 80.2766 80.0538 80.3267C79.9583 80.7732 79.7595 81.7024 80.5671 82.4891L81.0195 82.9304C80.9983 82.9515 80.9783 82.9739 80.9596 82.9974Z" fill="#222222"/>
</g>
<defs>
<linearGradient id="paint0_linear" x1="152" y1="40.1667" x2="-18.5667" y2="40.1667" gradientUnits="userSpaceOnUse">
<stop offset="0.53125" stop-color="#E96524"/>
<stop offset="0.53135" stop-color="#E96524" stop-opacity="0"/>
</linearGradient>
<linearGradient id="paint1_linear" x1="153" y1="40.1667" x2="-17.5667" y2="40.1667" gradientUnits="userSpaceOnUse">
<stop offset="0.53125" stop-color="#E96524"/>
<stop offset="0.53135" stop-color="#E96524" stop-opacity="0"/>
</linearGradient>
<clipPath id="clip0">
<rect width="50" height="50" fill="white" transform="translate(38 39)"/>
</clipPath>
</defs>
</svg>
